<svg xmlns="http://www.w3.org/2000/svg" xmlns:xlink="http://www.w3.org/1999/xlink" id="Layer_1" data-name="Layer 1" viewBox="0 0 650 450"><defs><style>.cls-1{fill:#fff}.cls-2{fill:#d4e2ff}.cls-3{fill:#130c5c}.cls-4{fill:#7567f6}.cls-5{fill:#3c41c7}.cls-6{fill:#9f9af6}.cls-7{fill:#c4d2f6}.cls-8{fill:#e8f1fe}.cls-9{fill:#dae9fc}.cls-10{fill:#cfe2fe}.cls-11{fill:#d8d8f8}.cls-12{fill:#8196c7}.cls-13{fill:#d3e2fb}.cls-14{fill:#9eb9ee}.cls-15{fill:url(#åçûìßííûé_ãðàäèåíò_89)}.cls-16{fill:url(#åçûìßííûé_ãðàäèåíò_89-2)}.cls-17{fill:#ffe7c9}.cls-18{fill:#e8cb83}.cls-19{fill:#ff560c}.cls-20,.cls-23{fill:#2876f9}.cls-20{opacity:.63}.cls-21{fill:#e8eefb}.cls-22{fill:#dae2f5}.cls-24{fill:#e44b0c}.cls-25{fill:#e0e6f3}.cls-26{fill:#b8d2fb}.cls-27{fill:#0c5df5}.cls-28{fill:#436ef6}.cls-29{fill:#718ee1}.cls-30{fill:#c2d5fb}.cls-31{fill:#caddfb}.cls-32{fill:#7d9ff6}.cls-33{fill:url(#åçûìßííûé_ãðàäèåíò_88)}.cls-34{fill:#a9c0f6}.cls-35{fill:#1d1119}.cls-36{fill:#feb08a}.cls-37{fill:#ffcf5b}.cls-38{fill:#f1a57e}.cls-39{fill:#0c0c0c}.cls-40{fill:#273976}.cls-41{fill:#283978}.cls-42{fill:#fdda64}.cls-43{fill:#c19311}.cls-44{fill:#6a90f6}.cls-45{fill:#3858d8}.cls-46{fill:#436df6}.cls-47{fill:#ff9a67}.cls-48{fill:#8396c6}.cls-49{fill:#acc3f1}.cls-50{fill:#fffdf3}.cls-51{fill:#ffdfa1}.cls-52{fill:#5a80f6}.cls-53{fill:#202d51}.cls-54{fill:#20212c}.cls-55{fill:#ffd05c}.cls-56{fill:#202e55}.cls-57{fill:#292d48}.cls-58{opacity:.42;fill:url(#åçûìßííûé_ãðàäèåíò_87)}.cls-59{fill:url(#åçûìßííûé_ãðàäèåíò_86)}.cls-60{fill:#cd9d0f}.cls-61{fill:#d6a40f}.cls-62{fill:url(#åçûìßííûé_ãðàäèåíò_86-2)}.cls-63{fill:url(#åçûìßííûé_ãðàäèåíò_86-3)}.cls-64{fill:url(#åçûìßííûé_ãðàäèåíò_86-4)}.cls-65{fill:#f1a076}</style><linearGradient id="åçûìßííûé_ãðàäèåíò_89" x1="347.41" x2="255.65" y1="97.47" y2="165.64" gradientUnits="userSpaceOnUse"><stop offset="0" stop-color="#e4ecfb"/><stop offset="1" stop-color="#a8c0ef"/></linearGradient><linearGradient id="åçûìßííûé_ãðàäèåíò_89-2" x1="152.92" x2="233.47" y1="110.35" y2="166.49" xlink:href="#åçûìßííûé_ãðàäèåíò_89"/><linearGradient id="åçûìßííûé_ãðàäèåíò_88" x1="217.42" x2="357.71" y1="78.33" y2="78.33" gradientUnits="userSpaceOnUse"><stop offset="0" stop-color="#e4ecfb"/><stop offset="1" stop-color="#b4c7f6"/></linearGradient><linearGradient id="åçûìßííûé_ãðàäèåíò_87" x1="449.94" x2="451.61" y1="257.36" y2="257.36" gradientTransform="translate(91.88 -24.13) rotate(14.72)" gradientUnits="userSpaceOnUse"><stop offset="0" stop-color="#fff"/><stop offset="1" stop-color="#d9dded"/></linearGradient><linearGradient id="åçûìßííûé_ãðàäèåíò_86" x1="182.83" x2="150.51" y1="375.83" y2="375.83" gradientUnits="userSpaceOnUse"><stop offset="0" stop-color="#ffcf5b"/><stop offset="1" stop-color="#e8b20c"/></linearGradient><linearGradient id="åçûìßííûé_ãðàäèåíò_86-2" x1="174.34" x2="142.02" y1="381.79" y2="381.78" xlink:href="#åçûìßííûé_ãðàäèåíò_86"/><linearGradient id="åçûìßííûé_ãðàäèåíò_86-3" x1="165.93" x2="133.6" y1="370.15" y2="370.15" xlink:href="#åçûìßííûé_ãðàäèåíò_86"/><linearGradient id="åçûìßííûé_ãðàäèåíò_86-4" x1="81.18" x2="46.89" y1="594.83" y2="642.18" gradientTransform="translate(290.8 -216.1) rotate(21.75)" xlink:href="#åçûìßííûé_ãðàäèåíò_86"/></defs><rect width="650" height="450" class="cls-1"/><path d="M43.36,240.16a6.81,6.81,0,1,1-6.8-6.81A6.8,6.8,0,0,1,43.36,240.16Z" class="cls-2"/><path d="M415.05,54.35a6.81,6.81,0,1,1-6.81-6.81A6.8,6.8,0,0,1,415.05,54.35Z" class="cls-2"/><path d="M40.27,282.76a3.41,3.41,0,1,1-3.4-3.4A3.41,3.41,0,0,1,40.27,282.76Z" class="cls-2"/><path d="M31.82,348.21a.31.31,0,0,1-.29-.31c0-.53.39-13,6.33-13.69a3.78,3.78,0,0,1,3,1c3.45,3,3.72,12,3.73,12.36a.31.31,0,0,1-.29.3.33.33,0,0,1-.31-.29c0-.09-.27-9.09-3.52-11.92a3.17,3.17,0,0,0-2.52-.81c-5.44.62-5.81,13-5.81,13.12A.3.3,0,0,1,31.82,348.21Z" class="cls-3"/><path d="M27.62,342.92l-.81,47.17L59.09,386l-.93-42.82Z" class="cls-4"/><path d="M21.74,342.94l3.14.05-1,42-3.68,1.21Z" class="cls-4"/><path d="M24.75,343.06h3l-.86,46.69-3.15-4.95Z" class="cls-5"/><path d="M20.23,386.23l3.8-1.42,2.91,5Z" class="cls-6"/><path d="M37,347.35a.31.31,0,0,1-.29-.31c0-.53.39-13,6.33-13.69a3.69,3.69,0,0,1,3,.95c3.46,3,3.73,12,3.74,12.36a.3.3,0,0,1-.29.3.31.31,0,0,1-.31-.29c0-.09-.27-9.09-3.52-11.92a3.1,3.1,0,0,0-2.52-.81c-5.44.62-5.81,13-5.81,13.12A.3.3,0,0,1,37,347.35Z" class="cls-3"/><path d="M546.7,192.22a6.9,6.9,0,1,1,6.9-6.9A6.91,6.91,0,0,1,546.7,192.22Zm0-12.62a5.72,5.72,0,1,0,5.72,5.72A5.72,5.72,0,0,0,546.7,179.6Z" class="cls-7"/><path d="M535.58,265.31c-40.11-47.19,42.3-124.74-44.41-165.48-79.63-37.42-144.75-5-203.31,26.28-14.07-25.21-54.76-34.53-106.6-14.77C109.45,138.71,68.69,191.2,58,228.37c-17.7,61.46,35.8,136.55,87.39,121.29,19.39-5.73,39.53,1.7,60,9.32,57.92,31.57,120.18,44.73,165,44.33C477.51,402.36,580,317.59,535.58,265.31Z" class="cls-8"/><path d="M370.2,404.86C318,404.86,256.1,388,204,359.65c-20.11-7.5-40.91-15.24-60.47-9.45-20,5.92-42.15-1.19-60.64-19.55-27.28-27.09-39.36-70.25-29.36-105,11.53-40.06,55-92.61,126-119.68,49.37-18.82,93.06-12.89,109.14,14.69,31.12-16.59,61.83-32,94.93-39.28,38.85-8.5,75.51-4.28,112.06,12.9,51.9,24.38,44.93,61.7,38.19,97.79-4.9,26.26-9.53,51.07,7.3,70.87,12.49,14.69,14.42,32.66,5.6,52-10.14,22.19-34.07,44.62-65.64,61.56-33.49,17.95-72.11,28-108.76,28.35ZM158.07,346.5c15.44,0,31.21,5.87,46.57,11.6l.11,0c52.58,28.66,115.23,45.52,167.58,45,36.38-.32,74.72-10.32,108-28.15,31.25-16.76,54.91-38.91,64.9-60.77,8.54-18.68,6.69-36-5.34-50.18-17.36-20.42-12.43-46.78-7.67-72.27,6.62-35.46,13.47-72.13-37.26-96-83-39-151.32-2.55-206.21,26.73L288,123l-.4-.72c-15.31-27.44-58.51-33.33-107.48-14.66-70.48,26.87-113.56,78.92-125,118.59-9.84,34.14,2.06,76.62,28.94,103.3,18,17.91,39.53,24.89,59,19.13A52.71,52.71,0,0,1,158.07,346.5Z" class="cls-9"/><path d="M197.2,110.33s3.71-13.83,4.88-21.86,2.24-11.93-1.54-14.71-6.6,1-7.79,7.46S197.2,110.33,197.2,110.33Z" class="cls-10"/><path d="M197.93,113.13s-9.11-3.77-16.19-4.69-18.92,0-17.54-7.53c1.18-6.43,13.85-1.52,18.91,1.69C186.47,104.74,197.93,113.13,197.93,113.13Z" class="cls-11"/><path d="M169.55,86.56c-5.06-2.61-11.93-6.76-15.1-8.21S144,73.7,140.64,80.47c-1.62,3.29,5.79,6.79,12.48,7.32C160.34,88.36,174.6,89.17,169.55,86.56Z" class="cls-10"/><path d="M157.57,68.21s-2.28-6.75-4.7-13.23-7.49-19.07-13.52-17.88c-6.35,1.25-4,9-1.25,12.67S157.57,68.21,157.57,68.21Z" class="cls-10"/><path d="M172.36,87.39c-.22-.08-22.68-7.58-31-7.41a.24.24,0,0,0-.23.24.23.23,0,0,0,.24.23c8.27-.18,30.65,7.3,30.88,7.38a.23.23,0,0,0,.21,0,.23.23,0,0,0-.07-.4Z" class="cls-12"/><path d="M216.57,144.88l-.1,0a.34.34,0,0,1-.44-.21,131.64,131.64,0,0,0-5.67-13c-3.35-6.71-8.79-16.21-15.7-23.38-5.57-5.78-10.74-10.23-15.3-14.16-6.57-5.66-12.24-10.55-17.27-17.63-6.69-9.41-24.63-37.73-24.81-38a.35.35,0,0,1,.11-.48.35.35,0,0,1,.48.11c.18.28,18.11,28.58,24.78,38,5,7,10.63,11.87,17.17,17.5,4.57,3.94,9.74,8.4,15.34,14.21,7,7.23,12.46,16.81,15.83,23.56a131,131,0,0,1,5.7,13.06A.36.36,0,0,1,216.57,144.88Z" class="cls-12"/><path d="M213.29,136.45a5.83,5.83,0,0,0-1.1-.78,130,130,0,0,0-13.4-8.36l-.65-.33c-5-2.52-20.28-10.22-26-7a4.47,4.47,0,0,0-2.18,3.87c-.29,4.49,7.06,7.45,11.46,8.82,6,1.87,17.44,2,22.62,1.84a15.94,15.94,0,0,1,6.62,1c.86.46,1.52.84,1.84,1l.4.29a.29.29,0,0,0,.34,0,.1.1,0,0,0,.05,0A.29.29,0,0,0,213.29,136.45Zm-14.75-8.62a102.09,102.09,0,0,1,9.8,5.92,38.4,38.4,0,0,0-5.7-2.3l-11.14-3.33-3.31-5.1c4,1.64,7.72,3.49,9.69,4.48Zm-26.48-7a3.77,3.77,0,0,1,.39-.26c2.29-1.31,6.62-.84,12.86,1.39.66.24,1.31.48,2,.74l0,.06,3.35,5.16-2.17-.65a.29.29,0,0,0-.33-.16l-.11,0-17-5.1A3.07,3.07,0,0,1,172.06,120.78Zm-1.5,3.15a5.43,5.43,0,0,1,.27-1.42l.07,0,16,4.8-11,2.57a21.23,21.23,0,0,1-2-1.17C171.58,127.21,170.46,125.58,170.56,123.93Zm6.21,6.39L188,127.69l2.54.76-7.06,4.19c-.68-.15-1.31-.31-1.88-.49A39.29,39.29,0,0,1,176.77,130.32Zm7.57,2.5,7-4.15,4.55,1.37-6.48,3.48C187.59,133.34,185.87,133.11,184.34,132.82ZM204,134a123.73,123.73,0,0,1-13.6-.35l6.22-3.35c2.69.8,4.81,1.44,5.82,1.73a39.42,39.42,0,0,1,5.51,2.22A19,19,0,0,0,204,134Z" class="cls-12"/><path d="M177.22,51.25a4.69,4.69,0,0,0-3.86,1.19c-2.19,2.14-2.19,6.78-1.92,11,.35,5.22,9.12,30.5,9.49,31.57a.29.29,0,0,0,.1.12,1.64,1.64,0,0,1,0,.18.24.24,0,0,0,.28.17l.09,0a.22.22,0,0,0,.08-.24l-.09-.42c.48-2,3.83-15.87,4.37-23.61l.16-.27a.24.24,0,0,0-.08-.32,25.85,25.85,0,0,0-.07-2.62c-.12-1.16-.34-2.87-.73-4.77l.12-.19a.24.24,0,0,0-.06-.32.27.27,0,0,0-.17,0c-.15-.69-.33-1.4-.53-2.11a.22.22,0,0,0-.05-.33s0,0,0,0a27.84,27.84,0,0,0-1-2.79C181.78,53.55,179.71,51.47,177.22,51.25Zm-2.11,24.63,3.62,6.18v.13c.54,4,1.13,7.37,1.59,9.67C179.08,88.19,176.93,81.78,175.11,75.88Zm6.09,17.9c-.45-2.06-1.27-6.2-2-11.58l6-10.08C184.61,79.1,182.05,90.23,181.2,93.78Zm4.15-25.73a19,19,0,0,1,0,3l-6.22,10.39c-.3-2.32-.6-5-.83-7.91,0,0,6.43-9.77,6.43-9.77C185,65.16,185.2,66.6,185.35,68.05Zm-.76-4.91-6.36,9.66c-.08-1-.15-2.06-.21-3.13a.31.31,0,0,0,.23,0l.05-.06,5.8-8.49C184.27,61.75,184.44,62.43,184.59,63.14Zm-.66-2.63L178,69.2a135,135,0,0,1,.12-16.78.23.23,0,1,0-.46,0,147.81,147.81,0,0,0,.91,28.5l-3.92-6.7a.24.24,0,0,0-.08-.09c-1.43-4.73-2.55-8.89-2.66-10.64-.26-3.91-.29-8.66,1.77-10.68a2.8,2.8,0,0,1,.38-.32,4.39,4.39,0,0,1,3.12-.73c2.31.19,4.25,2.18,5.77,5.89A27.27,27.27,0,0,1,183.93,60.51Z" class="cls-12"/><path d="M198.94,113.2c-.06,0-6.31-3.3-13.61-6.45-2.61-1.14-5-2.11-7.23-2.93a.21.21,0,0,0,0-.2l-4.64-5.12a.25.25,0,0,0-.33,0,.24.24,0,0,0,0,.33l4.3,4.74c-5.69-2.06-9.93-3-12.65-2.88a.24.24,0,0,0,0,.47c2.94-.17,7.52,1.07,12.38,2.83l-4.86,2.94a.23.23,0,0,0,.24.4l5.18-3.14a211.46,211.46,0,0,1,21,9.44.23.23,0,0,0,.24,0,.27.27,0,0,0,.07-.08A.22.22,0,0,0,198.94,113.2Z" class="cls-12"/><path d="M198,73a.23.23,0,0,0-.26.19C197,78,196.69,86.43,196.55,94l-3.09-5.29a.23.23,0,0,0-.32-.08.22.22,0,0,0-.08.31l3.28,5.63a.23.23,0,0,0,.2.11c-.14,8.14-.08,15.11-.07,15.25a.23.23,0,0,0,.23.23.24.24,0,0,0,.14-.05.25.25,0,0,0,.09-.19c0-.1,0-4.56,0-10.48a.25.25,0,0,0,.09-.07L201,94.11a.22.22,0,0,0,0-.32.23.23,0,0,0-.32,0L197,98.72c0-1.45,0-3,.06-4.54l5-6.58a.23.23,0,1,0-.37-.28L197,93.39a187.09,187.09,0,0,1,1.19-20.16A.24.24,0,0,0,198,73Z" class="cls-12"/><path d="M125.67,126.87a9.49,9.49,0,1,1-9.48-9.49A9.48,9.48,0,0,1,125.67,126.87Z" class="cls-8"/><path d="M556.75,161.93a4.74,4.74,0,1,1-4.74-4.75A4.73,4.73,0,0,1,556.75,161.93Z" class="cls-8"/><path d="M409.22,81.05a5.13,5.13,0,1,1-5.13-5.14A5.13,5.13,0,0,1,409.22,81.05Z" class="cls-1"/><path d="M298.59,374.23a5.13,5.13,0,1,1-5.13-5.14A5.13,5.13,0,0,1,298.59,374.23Z" class="cls-1"/><path d="M400.23,383.72a7.14,7.14,0,1,1,7.15-7.14A7.14,7.14,0,0,1,400.23,383.72Zm0-13a5.89,5.89,0,1,0,4.16,1.73A5.9,5.9,0,0,0,400.24,370.69Z" class="cls-1"/><path d="M216.71,216.57c-55.07,31.84,5.79,113.48,73.2,120.64,62,6.59,129-27.73,143.71-39.77,38.53-31.43,51.41-63,39.43-89.94-13.19-29.69-54.38-60.51-101.89-37.8-38.24,18.27-48.31,41.78-65.26,45.13C270,221.93,239.79,203.23,216.71,216.57Z" class="cls-13"/><path d="M177.22,159.26c-62.64,11.08-33.38,108.62,27.51,138.4,56,27.39,130.66,18,148.66,11.78,46.95-16.35,69.84-41.59,67.81-71C419,206,390.79,163,338.39,168c-42.19,4.1-59.69,22.74-76.77,20.09C225.45,182.52,203.47,154.61,177.22,159.26Z" class="cls-13"/><path d="M204.42,129.47h91a4.09,4.09,0,0,1,4.09,4.09V188.2a4.08,4.08,0,0,1-4.08,4.08h-91a4.08,4.08,0,0,1-4.08-4.08V133.55a4.08,4.08,0,0,1,4.08-4.08Z" class="cls-14"/><polygon points="293.56 129.46 261.97 192.29 230.56 192.29 262.15 129.46 293.56 129.46" class="cls-15"/><path d="M247.19,129.47l-31.35,62.81H205.16a4.82,4.82,0,0,1-4.83-4.82v-22l19.71-36Z" class="cls-16"/><rect width="14.13" height="12.91" x="211.01" y="151.32" class="cls-17" rx="2"/><rect width=".33" height="12.91" x="215.07" y="151.32" class="cls-18"/><polygon points="221.12 164.23 220.79 164.23 220.79 154.36 225.14 154.36 225.14 154.69 221.12 154.69 221.12 164.23" class="cls-18"/><rect width="4.23" height=".33" x="211.01" y="154.36" class="cls-18"/><rect width="4.23" height=".34" x="211.01" y="157.4" class="cls-18"/><rect width="4.23" height=".33" x="211.01" y="160.34" class="cls-18"/><rect width="4.18" height=".34" x="220.96" y="157.4" class="cls-18"/><rect width="4.18" height=".33" x="220.96" y="160.34" class="cls-18"/><path d="M291,153.15a.41.41,0,0,1-.27-.1.43.43,0,0,1-.06-.61,1.61,1.61,0,0,0,.27-1,1.7,1.7,0,0,0-.26-.93.42.42,0,0,1,.07-.6.43.43,0,0,1,.61.07,2.56,2.56,0,0,1,.45,1.46,2.47,2.47,0,0,1-.47,1.52A.45.45,0,0,1,291,153.15Z" class="cls-1"/><path d="M292.45,153.72a.46.46,0,0,1-.23-.06.45.45,0,0,1-.14-.6,3.44,3.44,0,0,0,.45-1.56,4.53,4.53,0,0,0-.47-1.66.44.44,0,0,1,.78-.39,5.46,5.46,0,0,1,.55,2.06,4.26,4.26,0,0,1-.57,2A.45.45,0,0,1,292.45,153.72Z" class="cls-1"/><path d="M293.88,154.46a.39.39,0,0,1-.21-.06.44.44,0,0,1-.17-.59,5.4,5.4,0,0,0,.66-2.31,7.2,7.2,0,0,0-.67-2.43.43.43,0,0,1,.2-.57.42.42,0,0,1,.58.2,8,8,0,0,1,.75,2.8,6.22,6.22,0,0,1-.77,2.74A.42.42,0,0,1,293.88,154.46Z" class="cls-1"/><path d="M295.34,155.17a.46.46,0,0,1-.22-.06.43.43,0,0,1-.15-.59,6.34,6.34,0,0,0,.79-3,11.16,11.16,0,0,0-.9-3.32.43.43,0,1,1,.79-.35,11.61,11.61,0,0,1,1,3.64,7.19,7.19,0,0,1-.9,3.47A.45.45,0,0,1,295.34,155.17Z" class="cls-1"/><circle cx="287.45" cy="182.43" r="6.79" class="cls-19"/><rect width="52.15" height="4.78" x="211.01" y="180.7" class="cls-1" rx="1.13"/><rect width="38.93" height="4.78" x="211.01" y="138.13" class="cls-1" rx="1.19"/><rect width="141.01" height="308.59" x="266.23" y="74" class="cls-20" rx="5.93"/><rect width="141.01" height="308.59" x="266.23" y="74" class="cls-1" rx="5.93"/><path d="M401.31,382.59H272.16a5.93,5.93,0,0,1-5.93-5.92V350.05h141v26.62A5.92,5.92,0,0,1,401.31,382.59Z" class="cls-21"/><path d="M402.26,382.59H271.37a5.13,5.13,0,0,1-5.14-5.13v-6.77h141v6.92A5,5,0,0,1,402.26,382.59Z" class="cls-22"/><path d="M409.68,74A15.76,15.76,0,0,0,397,67.68H276.44a15.79,15.79,0,0,0-15.8,15.81V372.31a15.8,15.8,0,0,0,15.8,15.79H397a15.81,15.81,0,0,0,15.81-15.79V83.49A15.64,15.64,0,0,0,409.68,74Zm-2.43,297.05a11.54,11.54,0,0,1-11.54,11.54H277.76a11.52,11.52,0,0,1-11.52-11.54V85.53A11.51,11.51,0,0,1,277.76,74h118a11.53,11.53,0,0,1,11.54,11.52Z" class="cls-23"/><polygon points="345.78 124.75 327.61 124.75 329.03 87.68 344.14 87.68 345.78 124.75" class="cls-19"/><path d="M338.33,140.45h-3.27a7.44,7.44,0,0,1-7.45-7.45v-8.24h18.17V133A7.44,7.44,0,0,1,338.33,140.45Z" class="cls-24"/><polygon points="327.61 124.75 309.43 124.75 313.77 87.68 329.03 87.68 327.61 124.75" class="cls-1"/><path d="M320.13,140.45H316.9a7.46,7.46,0,0,1-7.47-7.47v-8.22h18.18V133A7.47,7.47,0,0,1,320.13,140.45Z" class="cls-25"/><polygon points="309.33 124.75 291.15 124.75 298.78 87.68 313.55 87.68 309.33 124.75" class="cls-19"/><path d="M302,140.45h-3.44a7.37,7.37,0,0,1-7.37-7.37v-8.32h18.18v8.32A7.37,7.37,0,0,1,302,140.45Z" class="cls-24"/><polygon points="291.13 124.75 272.95 124.75 283.16 87.68 298.78 87.68 291.13 124.75" class="cls-1"/><path d="M283.74,140.45h-3.41a7.38,7.38,0,0,1-7.38-7.38v-8.31h18.18v8.31A7.38,7.38,0,0,1,283.74,140.45Z" class="cls-25"/><polygon points="272.99 124.75 254.81 124.75 267.85 87.68 283.16 87.68 272.99 124.75" class="cls-19"/><path d="M265.48,140.45h-3.17a7.5,7.5,0,0,1-7.5-7.5v-8.19H273V133A7.5,7.5,0,0,1,265.48,140.45Z" class="cls-24"/><polygon points="345.87 124.75 364.05 124.75 359.7 87.68 344.45 87.68 345.87 124.75" class="cls-1"/><path d="M353.38,140.45h3.16a7.5,7.5,0,0,0,7.51-7.5v-8.19H345.87V133A7.5,7.5,0,0,0,353.38,140.45Z" class="cls-25"/><polygon points="364.14 124.75 382.32 124.75 374.69 87.68 359.93 87.68 364.14 124.75" class="cls-19"/><path d="M373.23,140.45a9.08,9.08,0,0,0,9.09-9.08v-6.61H364.15v6.61A9.07,9.07,0,0,0,373.23,140.45Z" class="cls-24"/><polygon points="382.35 124.75 400.52 124.75 390.32 87.68 374.69 87.68 382.35 124.75" class="cls-1"/><path d="M389.82,140.45h3.23a7.46,7.46,0,0,0,7.47-7.47v-8.22H382.35V133A7.46,7.46,0,0,0,389.82,140.45Z" class="cls-25"/><polygon points="400.49 124.75 418.67 124.75 405.63 87.68 390.32 87.68 400.49 124.75" class="cls-19"/><path d="M409.58,140.45a9.08,9.08,0,0,0,9.09-9.08v-6.61H400.49v6.61A9.08,9.08,0,0,0,409.58,140.45Z" class="cls-24"/><rect width="47.89" height="9.45" x="341.41" y="169.56" class="cls-21"/><rect width="9.89" height="9.89" x="378.92" y="189.69" class="cls-21"/><rect width="47.89" height="9.45" x="341.41" y="263.34" class="cls-21"/><path d="M356.4,345.74H321.49v-7H356.4Zm-34.75-.17h34.58v-6.69H321.65Z" class="cls-12"/><rect width="9.89" height="9.89" x="378.92" y="283.47" class="cls-21"/><rect width="50.75" height=".17" x="314.6" y="332.61" class="cls-12"/><path d="M278,317.25H393.71v3.19H278Z" class="cls-26"/><path d="M278.3,216.82H394V220H278.3Z" class="cls-26"/><path d="M278.31,223.05H394v3.19H278.31Z" class="cls-26"/><path d="M278.14,229.94l34.88-.05v3.18l-34.88.06Z" class="cls-26"/><path d="M278,311H393.71v3.18H278Z" class="cls-26"/><path d="M277.88,324.14l34.88-.05v3.18l-34.88.06Z" class="cls-26"/><path d="M378.8,170.75v0Z" class="cls-1"/><path d="M378.8,178.12a.31.31,0,0,1-.3-.3v-7.07a.3.3,0,0,1,.6,0v7.07A.31.31,0,0,1,378.8,178.12Z" class="cls-27"/><path d="M382.22,172.79l4.27,0-2,3Z" class="cls-1"/><path d="M384.51,176.09a.29.29,0,0,1-.24-.11L382,173a.29.29,0,0,1,0-.31.31.31,0,0,1,.27-.17h4.27a.3.3,0,0,1,.26.15.29.29,0,0,1,0,.3l-2,3A.31.31,0,0,1,384.51,176.09Zm-1.7-3,1.68,2.21,1.45-2.22Z" class="cls-27"/><path d="M381.9,193.2a2.53,2.53,0,0,1,.5-1.73,1.93,1.93,0,0,1,1.41-.64,1.83,1.83,0,0,1,1.4.48,2.56,2.56,0,0,1,.62,1.75l-.5,0a2.07,2.07,0,0,0-.47-1.37,1.27,1.27,0,0,0-1-.33,1.45,1.45,0,0,0-1.06.45,2.1,2.1,0,0,0-.38,1.36Z" class="cls-28"/><path d="M381,198.05a.71.71,0,0,1-.71-.71l.59-3.63a.69.69,0,0,1,.7-.67h4.94a.71.71,0,0,1,.71.71l.55,3.48a.72.72,0,0,1-.71.75Zm.58-4.5a.2.2,0,0,0-.2.2l-.59,3.63a.21.21,0,0,0,.21.17l6.07-.07a.21.21,0,0,0,.21-.21l-.55-3.48c0-.15-.1-.24-.21-.24Z" class="cls-28"/><path d="M277.14,151.1h51.68v58.72H277.14Z" class="cls-21"/><path d="M297.14,162.59l2-2.16a6.48,6.48,0,0,0,3.33.93,20.86,20.86,0,0,0,2.92-.56l1.43,2s4.36.44,6.56,2.2,10.08,22.65,10.08,22.65l-.89,2.32,1.25,3.17-2.29,1.77-2.09-3.06-2.64-.87-6.2-14.41,2.05,19.77H292.62l.44-19.77-4.38,13.34-2.41,1.49-1.44,2.93-3-.89.65-2.93-1.2-2.67s5.07-18.74,7-20.79S297.14,162.59,297.14,162.59Z" class="cls-29"/><path d="M318.06,204a5,5,0,1,1,5,5A5,5,0,0,1,318.06,204Z" class="cls-1"/><path d="M323.08,207.33a.14.14,0,0,1-.09,0c-.14-.1-3.22-2.29-3.18-4.22a1.83,1.83,0,0,1,.94-1.53,1.48,1.48,0,0,1,1.15-.23,2.24,2.24,0,0,1,1.2.9,2.37,2.37,0,0,1,1.26-.91,1.46,1.46,0,0,1,1.16.24,1.72,1.72,0,0,1,.85,1.43c.05,1.91-3.06,4.22-3.19,4.31A.13.13,0,0,1,323.08,207.33Zm-1.49-5.71a1.22,1.22,0,0,0-.66.21,1.53,1.53,0,0,0-.79,1.26c0,1.57,2.41,3.47,2.94,3.86.53-.41,3-2.4,3-4a1.38,1.38,0,0,0-.71-1.15,1.14,1.14,0,0,0-.9-.19,2.3,2.3,0,0,0-1.19,1,.16.16,0,0,1-.14.08.18.18,0,0,1-.15-.08,2.19,2.19,0,0,0-1.13-.95A.85.85,0,0,0,321.59,201.62Z" class="cls-27"/><path d="M365.11,199.58H346.55a5.14,5.14,0,1,1,0-10.28h18.56a5.14,5.14,0,0,1,0,10.28Z" class="cls-28"/><path d="M378.8,264.53v0Z" class="cls-1"/><path d="M378.8,271.9a.31.31,0,0,1-.3-.3v-7.07a.3.3,0,0,1,.6,0v7.07A.31.31,0,0,1,378.8,271.9Z" class="cls-27"/><path d="M382.22,266.57l4.27,0-2,3Z" class="cls-1"/><path d="M384.51,269.87a.29.29,0,0,1-.24-.11l-2.29-3a.29.29,0,0,1,0-.31.3.3,0,0,1,.27-.16h4.27a.3.3,0,0,1,.26.15.29.29,0,0,1,0,.3l-2,3A.31.31,0,0,1,384.51,269.87Zm-1.7-3,1.68,2.21,1.45-2.22Z" class="cls-27"/><path d="M381.9,287a2.53,2.53,0,0,1,.5-1.73,1.89,1.89,0,0,1,1.41-.63,1.69,1.69,0,0,1,1.4.47,2.56,2.56,0,0,1,.62,1.75l-.5,0a2.05,2.05,0,0,0-.47-1.37,1.32,1.32,0,0,0-1-.33,1.42,1.42,0,0,0-1.06.46,2,2,0,0,0-.38,1.35Z" class="cls-28"/><path d="M381,291.83a.71.71,0,0,1-.71-.71l.59-3.63a.69.69,0,0,1,.7-.67h4.94a.71.71,0,0,1,.71.71l.55,3.48a.72.72,0,0,1-.71.75Zm.58-4.5a.2.2,0,0,0-.2.2l-.59,3.63a.21.21,0,0,0,.21.17l6.07-.07a.21.21,0,0,0,.21-.21l-.55-3.48c0-.15-.1-.24-.21-.24Z" class="cls-28"/><path d="M277.14,244.88h51.68V303.6H277.14Z" class="cls-21"/><path d="M318.06,297.78a5,5,0,1,1,5,5A5,5,0,0,1,318.06,297.78Z" class="cls-1"/><path d="M323.08,301.11a.14.14,0,0,1-.09,0c-.14-.1-3.22-2.29-3.18-4.22a1.83,1.83,0,0,1,.94-1.53,1.46,1.46,0,0,1,1.15-.23,2.27,2.27,0,0,1,1.2.89,2.41,2.41,0,0,1,1.26-.9,1.46,1.46,0,0,1,1.16.24,1.72,1.72,0,0,1,.85,1.42c.05,1.92-3.06,4.23-3.19,4.32A.13.13,0,0,1,323.08,301.11Zm-1.49-5.71a1.22,1.22,0,0,0-.66.21,1.53,1.53,0,0,0-.79,1.26c0,1.56,2.41,3.47,2.94,3.86.53-.41,3-2.4,3-4a1.38,1.38,0,0,0-.71-1.15,1.15,1.15,0,0,0-.9-.19,2.25,2.25,0,0,0-1.19,1,.16.16,0,0,1-.14.08.18.18,0,0,1-.15-.08,2.19,2.19,0,0,0-1.13-.95A.85.85,0,0,0,321.59,295.4Z" class="cls-27"/><path d="M365.11,293.36H346.55a5.14,5.14,0,0,1,0-10.28h18.56a5.14,5.14,0,0,1,0,10.28Z" class="cls-28"/><polygon points="294.63 251.15 310.62 251.15 313.02 260.6 316.97 293.36 309.69 294.06 302.98 266.55 298.85 294.06 290.97 292.76 292.69 261.16 294.63 251.15" class="cls-28"/><rect width="16" height="1.67" x="294.62" y="249.49" class="cls-28"/><rect width="137.53" height="2.51" x="267.98" y="85.14" class="cls-27"/><path d="M152.69,337.38h-.42l0-.83h.42c1,0,1.63-.06,1.63-.06l.42,0,.08.83-.41,0S153.75,337.38,152.69,337.38Zm-3-.14-.41,0c-.54-.06-1.1-.14-1.69-.23l-.41-.06.13-.83.41.06c.58.09,1.13.17,1.65.22l.41.05Zm-5-.86-.41-.11c-.53-.14-1.08-.3-1.63-.47l-.4-.13.26-.8.4.13c.53.17,1.06.33,1.58.46l.41.11Zm-4.83-1.62-.38-.17c-.51-.23-1-.48-1.53-.74l-.38-.2.39-.74.37.19c.5.26,1,.5,1.49.72l.38.17Zm-4.49-2.42-.34-.23c-.47-.32-.93-.65-1.38-1l-.33-.26.51-.66.33.26c.44.34.89.66,1.34,1l.34.24Zm-4-3.18-.3-.29c-.39-.4-.78-.81-1.17-1.24l-.28-.31.63-.56.28.31c.37.42.75.82,1.13,1.2l.3.3ZM128,325.31l-.24-.34-.46-.68-.7-1.09.71-.45s.53.84.69,1.08l.45.66.24.34ZM125.38,321l-.19-.37c-.26-.52-.5-1-.73-1.53l-.17-.38.76-.35.17.39c.23.49.47,1,.72,1.49l.19.37Zm-2-4.66-.14-.39q-.27-.82-.51-1.62l-.11-.4.8-.24.12.41c.15.52.32,1,.5,1.58l.13.39Zm-1.35-4.9-.08-.41c-.1-.57-.19-1.12-.27-1.67l-.06-.42.83-.11.06.41c.07.54.16,1.08.27,1.63l.07.42Zm-.64-5,0-.42c0-.56,0-1.1,0-1.62v-.42l.84-.07v.41c0,.59,0,1.12,0,1.66v.42Zm.9-5-.83-.08,0-.41c.06-.61.13-1.17.2-1.69l.06-.41.83.12-.06.41c-.07.51-.14,1.06-.2,1.65Zm.79-4.89-.81-.22.11-.4a6.89,6.89,0,0,1,.2-.68v-.35h.83l0,.55c0,.05-.09.29-.2.7Z" class="cls-27"/><path d="M379.52,233h44.05c1,0,1.8,1.5,1.8,3.35v41.34c0,1.84-.81,3.34-1.8,3.34H379.52c-1,0-1.8-1.5-1.8-3.34V236.35C377.72,234.5,378.52,233,379.52,233Z" class="cls-1"/><path d="M423.57,281.45H379.52c-1.25,0-2.22-1.65-2.22-3.76V236.35c0-2.11,1-3.77,2.22-3.77h44.05c1.24,0,2.22,1.66,2.22,3.77v41.34C425.79,279.8,424.81,281.45,423.57,281.45Zm-44.05-48c-.66,0-1.38,1.2-1.38,2.93v41.34c0,1.72.72,2.92,1.38,2.92h44.05c.65,0,1.38-1.2,1.38-2.92V236.35c0-1.73-.73-2.93-1.38-2.93Z" class="cls-27"/><path d="M257.36,26.68H288.1c.69,0,1.25,1,1.25,2.33V57.85c0,1.29-.56,2.34-1.25,2.34H257.36c-.69,0-1.25-1-1.25-2.34V29C256.11,27.72,256.67,26.68,257.36,26.68Z" class="cls-1"/><path d="M288.1,60.61H257.36c-.95,0-1.67-1.19-1.67-2.76V29c0-1.57.72-2.75,1.67-2.75H288.1c.95,0,1.67,1.18,1.67,2.75V57.85C289.77,59.42,289.05,60.61,288.1,60.61ZM257.36,27.1c-.34,0-.83.74-.83,1.91V57.85c0,1.17.49,1.92.83,1.92H288.1c.34,0,.84-.75.84-1.92V29c0-1.17-.5-1.91-.84-1.91Z" class="cls-27"/><path d="M458.61,293.2h24.85c.56,0,1,.84,1,1.88v23.31c0,1.05-.45,1.89-1,1.89H458.61c-.56,0-1-.84-1-1.89V295.08C457.6,294,458.05,293.2,458.61,293.2Z" class="cls-1"/><path d="M483.46,320.7H458.61c-.81,0-1.43-1-1.43-2.31V295.08c0-1.31.62-2.3,1.43-2.3h24.85c.81,0,1.43,1,1.43,2.3v23.31C484.89,319.71,484.27,320.7,483.46,320.7Zm-24.85-27.09c-.21,0-.59.56-.59,1.47v23.31c0,.91.38,1.47.59,1.47h24.85c.21,0,.59-.56.59-1.47V295.08c0-.91-.38-1.47-.59-1.47Z" class="cls-27"/><path d="M412.15,251.65l-23.93-.09a.42.42,0,0,1-.42-.42.42.42,0,0,1,.42-.42l23.93.1a.42.42,0,1,1,0,.83Z" class="cls-27"/><path d="M406.67,269l-.1,0H395.32a.42.42,0,0,1,0-.84h11.25a9.35,9.35,0,0,0,.83-.71c.5-1.87,5.57-20.94,5.8-21.68a1.62,1.62,0,0,1,1.65-1l5.31-.24a.4.4,0,0,1,.44.4.42.42,0,0,1-.4.44l-5.35.24s-.71,0-.85.41c-.23.74-5.76,21.56-5.82,21.77a.37.37,0,0,1-.12.2C407.29,268.66,406.93,269,406.67,269Z" class="cls-27"/><path d="M408.24,264.59l-16.16-.1a.41.41,0,0,1-.4-.3l-3.86-12.84a.43.43,0,0,1,.28-.52.43.43,0,0,1,.53.28l3.76,12.55,15.85.09a.42.42,0,0,1,0,.84Z" class="cls-27"/><path d="M395.16,264.47a.41.41,0,0,1-.4-.31l-3.26-12.82a.42.42,0,0,1,.82-.21L395.57,264a.42.42,0,0,1-.3.51Z" class="cls-27"/><path d="M405.55,264.47h-.07a.41.41,0,0,1-.34-.48l2.22-12.41a.43.43,0,0,1,.49-.34.42.42,0,0,1,.34.49L406,264.13A.41.41,0,0,1,405.55,264.47Z" class="cls-27"/><path d="M402.24,264.28a.42.42,0,0,1-.41-.43l.28-12.47a.4.4,0,0,1,.43-.41.42.42,0,0,1,.41.43l-.28,12.47A.43.43,0,0,1,402.24,264.28Z" class="cls-27"/><path d="M398.22,264.53a.41.41,0,0,1-.41-.37l-1.6-12.72a.42.42,0,0,1,.83-.11l1.6,12.73a.41.41,0,0,1-.37.46Z" class="cls-27"/><path d="M411,255.78l-21.55-.13a.41.41,0,0,1-.41-.42.41.41,0,0,1,.41-.42l21.56.13a.43.43,0,0,1,.41.43A.41.41,0,0,1,411,255.78Z" class="cls-27"/><path d="M409.68,260.34,391,260.18a.44.44,0,0,1-.42-.43.41.41,0,0,1,.42-.41l18.72.17a.42.42,0,1,1,0,.83Z" class="cls-27"/><path d="M397.71,272.29a1.8,1.8,0,1,1,1.8-1.8A1.81,1.81,0,0,1,397.71,272.29Zm0-2.76a1,1,0,1,0,1,1A1,1,0,0,0,397.71,269.53Z" class="cls-27"/><path d="M404.53,272.29a1.8,1.8,0,1,1,1.8-1.8A1.8,1.8,0,0,1,404.53,272.29Zm0-2.76a1,1,0,1,0,1,1A1,1,0,0,0,404.53,269.53Z" class="cls-27"/><path d="M421.26,246.33a1.43,1.43,0,1,1,1.43-1.42A1.43,1.43,0,0,1,421.26,246.33Zm0-2a.59.59,0,1,0,0,1.17.59.59,0,1,0,0-1.17Z" class="cls-27"/><rect width="16.35" height="16.35" x="265.42" y="38" class="cls-30"/><rect width="2.63" height="16.35" x="271.99" y="38" class="cls-23"/><path d="M270.72,38.23a4.66,4.66,0,0,1-3.34-1,2.78,2.78,0,0,1-.44-2.84c.32-1.1.86-1.72,1.62-1.82,2.06-.26,4.67,3.82,5.18,4.65l.36.59-.68.15A12.44,12.44,0,0,1,270.72,38.23Zm-1.94-4.71h-.09c-.4.06-.65.64-.79,1.11a1.87,1.87,0,0,0,.21,1.87c.84.89,3,.78,4.37.58C271.37,35.42,269.73,33.52,268.78,33.52Z" class="cls-28"/><path d="M275.53,38.23a12.67,12.67,0,0,1-2.71-.31l-.67-.15.36-.59c.5-.83,3.13-4.91,5.17-4.65.76.1,1.31.72,1.63,1.82a2.8,2.8,0,0,1-.45,2.84A4.63,4.63,0,0,1,275.53,38.23Zm-1.77-1.15c1.34.2,3.53.31,4.37-.58a1.82,1.82,0,0,0,.21-1.87c-.13-.47-.38-1.05-.79-1.11C276.61,33.39,274.9,35.36,273.76,37.08Z" class="cls-28"/><path d="M474.38,312.75H462.84v-8.49l4.2-.14,2.66-3.53,0-2.41a1.23,1.23,0,0,1,1.85-1.08l.25.15a2.62,2.62,0,0,1,1.31,2.21l.08,3.16h4.27a1.82,1.82,0,0,1,1.76,2.26l-2.25,6.1A2.73,2.73,0,0,1,474.38,312.75Zm-10.7-.83h10.7a1.89,1.89,0,0,0,1.76-1.23l2.24-6.06a1,1,0,0,0-.19-.8,1,1,0,0,0-.77-.37h-5.09l-.1-4a1.81,1.81,0,0,0-.89-1.51l-.26-.14a.39.39,0,0,0-.58.34l0,2.7L467.46,305l-3.78.12Z" class="cls-28"/><path d="M485.09,223.68l-.37-.18-.91-.44-.38-.17.33-.76.39.16s.34.15.94.46l.38.18Z" class="cls-27"/><path d="M488.36,307.89l-.37-.75,1.28-.64.38.75Zm3.52-1.85-.42-.73.36-.2c.48-.28.95-.56,1.43-.86l.36-.22.44.72-.36.22c-.48.3-1,.59-1.45.86Zm4.29-2.7-.49-.68.34-.24c.45-.32.9-.65,1.34-1l.33-.26.51.66-.33.26c-.45.35-.9.68-1.36,1Zm4-3.14-.56-.62.31-.28,1.2-1.14.3-.3.59.6-.3.29-1.23,1.17Zm3.57-3.61-.63-.54.27-.32c.35-.42.7-.85,1-1.29l.25-.33.67.51-.26.33c-.35.45-.7.89-1.06,1.32Zm3.06-4.06-.7-.45.22-.35c.29-.46.58-.93.86-1.42l.21-.36.72.41-.21.37c-.28.49-.57,1-.87,1.45Zm2.48-4.43-.76-.35.17-.38c.23-.5.45-1,.66-1.52l.16-.39.78.31-.16.39c-.22.53-.44,1-.68,1.56Zm1.87-4.72-.8-.26.13-.4c.16-.51.32-1.05.46-1.59l.11-.4.81.22-.11.4c-.15.56-.31,1.1-.47,1.63Zm1.28-4.91-.82-.16.08-.41c.1-.53.2-1.08.29-1.64l.06-.41.83.13-.07.42c-.08.56-.18,1.12-.29,1.66Zm.75-5-.83-.08,0-.41c0-.55.09-1.1.13-1.66l0-.42.84.05,0,.42c0,.57-.08,1.13-.13,1.68Zm.29-5h-.84v-2.5l.84,0Zm-1-5-.19-2.5.83-.08.19,2.52Zm-.47-5L512,258c-.08-.55-.18-1.1-.28-1.63l-.08-.42.82-.16.08.41c.11.56.21,1.11.29,1.67l.06.42Zm-1-4.87-.11-.4c-.16-.54-.32-1.06-.49-1.58l-.13-.4.79-.26.13.39c.18.54.35,1.07.5,1.62l.12.4Zm-1.61-4.7-.17-.38c-.22-.52-.45-1-.68-1.52l-.18-.37.75-.37.18.38c.25.51.48,1,.7,1.55l.17.38Zm-2.19-4.47L507,244c-.28-.49-.56-1-.86-1.42l-.22-.36.71-.44.22.35c.3.47.59,1,.88,1.45l.21.36Zm-2.69-4.19-.25-.34c-.33-.45-.66-.89-1-1.32l-.26-.33.65-.52.26.33c.35.44.69.89,1,1.34l.25.34Zm-3.12-3.89-.28-.31c-.38-.42-.75-.83-1.13-1.22l-.3-.3.61-.58.29.3c.39.4.77.81,1.15,1.24l.28.31Zm-3.49-3.57-.3-.29-1.24-1.11-.32-.27.55-.64.31.28c.42.36.84.74,1.26,1.12l.31.29Zm-3.79-3.25-.33-.26c-.45-.35-.9-.68-1.34-1l-.33-.25.49-.67,2,1.51Zm-4.06-2.91-.35-.23c-.5-.32-1-.61-1.42-.88l-.36-.21.43-.72.36.21c.46.28.94.57,1.44.89l.35.23Z" class="cls-27"/><path d="M417.63,227.4l-.71-.46.23-.35c.31-.48.63-1,.94-1.4l.24-.35.69.48-.24.35q-.46.66-.93,1.38Zm2.88-4.06-.65-.53.27-.32c.36-.45.73-.88,1.09-1.29l.28-.31.63.55-.28.31c-.36.41-.72.83-1.08,1.27Zm3.34-3.67-.57-.62.3-.28c.42-.4.84-.78,1.26-1.13l.32-.28.55.64-.32.27c-.41.35-.82.72-1.24,1.11Zm3.81-3.17-.47-.69.35-.24c.48-.33.95-.64,1.42-.92l.36-.22.43.72-.35.21c-.46.28-.92.58-1.39.9Zm4.27-2.5-.34-.76.38-.18c.55-.25,1.08-.46,1.58-.65l.39-.14.29.78-.39.15c-.48.18-1,.39-1.52.63Zm4.65-1.63-.16-.82.41-.08a11.07,11.07,0,0,1,1.73-.24l.42,0,0,.84h-.42a12.42,12.42,0,0,0-1.6.23Z" class="cls-27"/><path d="M456.41,136.46a4.41,4.41,0,1,1-4.4-4.41A4.41,4.41,0,0,1,456.41,136.46Z" class="cls-31"/><path d="M425.37,208.06a7.92,7.92,0,1,1,7.92-7.92A7.93,7.93,0,0,1,425.37,208.06Zm0-14.66a6.74,6.74,0,1,0,6.74,6.74,6.76,6.76,0,0,0-6.74-6.74Z" class="cls-1"/><path d="M421.42,98.4l-1.8-1.75a12.46,12.46,0,0,0,0-17.31l1.81-1.75a15,15,0,0,1,0,20.81Z" class="cls-32"/><path d="M430.24,106.24l-1.84-1.71a24.27,24.27,0,0,0-.25-33.37L430,69.42a26.76,26.76,0,0,1,.28,36.82Z" class="cls-32"/><path d="M439.18,114.22l-1.85-1.7a36.24,36.24,0,0,0-.55-49.66l1.81-1.74a38.73,38.73,0,0,1,.59,53.1Z" class="cls-32"/><path d="M476.18,341.94l-.05-.84.42,0c.53,0,1.07-.08,1.64-.15l.42-.05.1.83-.41.05c-.59.08-1.16.13-1.7.15Zm-2.57-.05-.42,0a14.07,14.07,0,0,1-1.71-.23l-.41-.08.17-.82.41.08a15.51,15.51,0,0,0,1.61.22l.42,0Zm7.63-.71-.24-.8.4-.12c.52-.16,1-.35,1.54-.55l.39-.16.32.78-.39.15c-.53.22-1.07.41-1.62.58Zm4.7-2.09-.48-.69.35-.24a15.08,15.08,0,0,0,1.28-1l.32-.28.55.63-.32.28a13.69,13.69,0,0,1-1.36,1.05Zm3.78-3.49-.68-.5.25-.33a13.26,13.26,0,0,0,.88-1.37l.21-.36.73.41-.21.37a16.82,16.82,0,0,1-.93,1.44Zm2.42-4.53-.8-.26.13-.39c.16-.52.3-1.05.41-1.59l.08-.41.82.17-.08.41c-.12.56-.26,1.12-.43,1.66Zm.93-5.05-.84,0v-.42c0-.21,0-.41,0-.61,0-.35,0-.7,0-1l0-.41.84,0,0,.42c0,.35,0,.71,0,1.07,0,.21,0,.42,0,.63Zm-1.14-4.95-.07-.41c-.11-.57-.22-1.11-.34-1.62l-.1-.4.81-.2.1.4c.13.53.25,1.08.35,1.67l.07.41Zm-1.22-4.8-.15-.39c-.22-.61-.39-1-.41-1l0-.18v-.42h.84v.33c.07.15.22.5.41,1l.14.39Z" class="cls-27"/><path d="M406.89,82.66H266.59c1.15-5.24,5.83-8.87,11.76-8.64l117.16,0A11.51,11.51,0,0,1,406.89,82.66Z" class="cls-33"/><path d="M394.93,80.77h-7.65a1.07,1.07,0,0,1-1.07-1.07V77a1.07,1.07,0,0,1,1.07-1.07h7.65A1.07,1.07,0,0,1,396,77V79.7A1.07,1.07,0,0,1,394.93,80.77Zm-7.65-4.34a.53.53,0,0,0-.53.53V79.7a.53.53,0,0,0,.53.53h7.65a.52.52,0,0,0,.53-.53V77a.53.53,0,0,0-.53-.53Z" class="cls-1"/><path d="M393.12,79.87h-5.46a.64.64,0,0,1-.62-.65V77.44a.63.63,0,0,1,.62-.64h3.52Z" class="cls-1"/><path d="M396.57,78v.61a.19.19,0,0,1-.19.2h-.65v-1h.65A.2.2,0,0,1,396.57,78Z" class="cls-1"/><path d="M283.25,77.55l-.75.79a3.83,3.83,0,0,0-5.31,0l-.76-.78a4.92,4.92,0,0,1,6.82,0Z" class="cls-1"/><path d="M282.13,78.73l-.75.8a2.19,2.19,0,0,0-3.05,0l-.77-.79a3.29,3.29,0,0,1,4.57,0Z" class="cls-1"/><path d="M281,79.93l-1.13,1.19L278.72,80a1.63,1.63,0,0,1,2.27,0Z" class="cls-1"/><rect width="1.5" height="5.3" x="292.19" y="75.82" class="cls-1"/><rect width="1.5" height="4.13" x="289.97" y="77" class="cls-1"/><rect width="1.5" height="3.13" x="287.9" y="77.99" class="cls-1"/><rect width="1.5" height="1.57" x="285.87" y="79.56" class="cls-1"/><path d="M97.7,180.1h86.57a3.85,3.85,0,0,1,3.78,3.92V288.39a3.85,3.85,0,0,1-3.78,3.92H97.7a3.86,3.86,0,0,1-3.78-3.92V184A3.86,3.86,0,0,1,97.7,180.1Z" class="cls-1"/><path d="M184.27,292.72H97.7a4.27,4.27,0,0,1-4.2-4.33V184a4.27,4.27,0,0,1,4.2-4.33h86.57a4.27,4.27,0,0,1,4.2,4.33V288.39A4.27,4.27,0,0,1,184.27,292.72ZM97.7,180.52a3.44,3.44,0,0,0-3.36,3.5V288.39a3.44,3.44,0,0,0,3.36,3.5h86.57a3.43,3.43,0,0,0,3.36-3.5V184a3.43,3.43,0,0,0-3.36-3.5Z" class="cls-27"/><path d="M134.29,223.92l-28.16-.6,1.27-.75c6-3.54,15.68-9.76,16.12-11.4a2.51,2.51,0,0,0-.46-2.22,2.14,2.14,0,0,0-1.78-.83c-1.52.07-2.19,2-2.2,2l-.79-.26c0-.1.86-2.52,3-2.62a3,3,0,0,1,2.47,1.15,3.35,3.35,0,0,1,.61,3c-.18.67-1.32,1.75-2.92,3Zm-25.21-1.37,22.59.47-10.95-8.09C117.06,217.67,111.62,221,109.08,222.55Z" class="cls-34"/><path d="M118.34,214.7l1.2-.86c7.66-5.53,19.21-14.57,19.6-16.8a3.37,3.37,0,0,0-.89-2.93,3,3,0,0,0-2.52-.91c-2,.29-2.71,3-2.71,3l-.82-.19c0-.13.8-3.28,3.42-3.65a3.76,3.76,0,0,1,3.23,1.16,4.26,4.26,0,0,1,1.12,3.66c-.16.88-1.54,2.45-3.51,4.29l17.64,10.69Zm17.48-12.62c-4.57,4.14-11.65,9.41-14.61,11.58l30.2-2.14Z" class="cls-34"/><path d="M129.31,204.34l5.47,6.32,7.55-7,12.26,6.54a8.37,8.37,0,0,1,4.16,5.3c1.76,6.86,5.52,21.52,6.6,24.81,1.41,4.33,5.88,19.4,5.88,19.4l-.55,7.15-7.07,1.48-3.13-4.79-8.33-26.22,2.16,29.19-18.39,9.3-21.06-8.3-1.17-35.28-12,27.67-.79-25.09,14.59-22.13Z" class="cls-28"/><path d="M161.67,263.47a.31.31,0,0,1-.29-.22.3.3,0,0,1,.22-.36l8.45-2.11a.28.28,0,0,1,.36.21.29.29,0,0,1-.21.36l-8.46,2.11Z" class="cls-35"/><polygon points="135.29 209.98 139.88 214.99 146.02 204.34 141.62 202.92 135.29 209.98" class="cls-28"/><polygon points="137.56 213.5 133.69 219.46 126.94 209.65 131.93 207.49 137.56 213.5" class="cls-28"/><path d="M140,214.48a.27.27,0,0,1-.22-.1l-4.1-4.8a.29.29,0,0,1,0-.4l5.88-6.44a.28.28,0,0,1,.31-.08l4,1.34a.29.29,0,0,1,.18.18.28.28,0,0,1,0,.25l-5.82,9.91a.31.31,0,0,1-.23.14Zm-3.7-5.09,3.66,4.29,5.42-9.24-3.5-1.16Z" class="cls-35"/><path d="M130.69,215.47a.31.31,0,0,1-.25-.14l-4-6.49-1.8-2.74a.29.29,0,0,1,0-.24.25.25,0,0,1,.15-.18L129,203.5a.31.31,0,0,1,.36.07l5.37,6.14a.29.29,0,0,1,0,.36l-3.77,5.28A.31.31,0,0,1,130.69,215.47Zm-5.36-9.42,1.62,2.47,3.76,6.12,3.38-4.72L129,204.13Z" class="cls-35"/><path d="M136.71,273a.32.32,0,0,1-.31-.29l-1.94-61.55a.29.29,0,0,1,.29-.31.32.32,0,0,1,.3.29L137,272.66A.32.32,0,0,1,136.71,273Z" class="cls-35"/><path d="M588.16,336.23l20.47,39.41,3.07-5.51s-3.48-10.78-4.46-14.61-8.69-23.22-9.67-24.68S588.16,336.23,588.16,336.23Z" class="cls-36"/><path d="M618.56,378.74l-1.75-5.93-5.14-5.34-5.33,6.26s1.77,1.86,0,5.49-5.93,7.48-5.93,7.48l11.51-4.8,1.06-6.22,2.37-1.78,2.2,5Z" class="cls-37"/><path d="M551.22,336.85,556.29,381l4.84-4.06s.59-11.31,1-15.24.14-24.78-.25-26.5S551.22,336.85,551.22,336.85Z" class="cls-36"/><path d="M564.47,387.41l.48-6.16-2.9-6.83-7.21,3.95s1,2.36-2,5.13-8.2,4.87-8.2,4.87l12.46-.38,3.21-5.43,2.85-.82.27,5.47Z" class="cls-37"/><path d="M495,253.6s3.62,2.15,4.17,2.41,2.29,1.26,2.29,1.26l3.82,9.3s-2-.41-2.93-.48a4.79,4.79,0,0,1-2.5-.44c-.68-.48-3.11-2-3.47-2.17a27,27,0,0,1-2.63-1c-.17-.19-1.65-1.35-1.5-2.27,0-.21-1.64-.46-1.37-1.55s.94-.78.94-.78l-.41-.54s-2.05-.19-2.07-.94a1.2,1.2,0,0,1,.74-1.06Z" class="cls-38"/><path d="M494.6,250.27l-5,3.62a.2.2,0,0,0,0,.27l7.51,10.33a.19.19,0,0,0,.27,0l5-3.62a.19.19,0,0,0,0-.26l-7.51-10.33A.19.19,0,0,0,494.6,250.27Z" class="cls-27"/><path d="M494.55,250.72l-4.49,3.3c-.13.09-.06.4-.06.4l7.07,9.72a.28.28,0,0,0,.4.06l4.48-3.3a.29.29,0,0,0,.07-.4L495,250.78A.28.28,0,0,0,494.55,250.72Z" class="cls-21"/><path d="M496.89,264.26l-7.06-9.71a.3.3,0,0,1,0-.08c0-.11-.08-.46.15-.62l4.48-3.31a.56.56,0,0,1,.38-.09.51.51,0,0,1,.32.21l7.07,9.71a.49.49,0,0,1,.09.37.46.46,0,0,1-.2.33l-4.49,3.31a.52.52,0,0,1-.29.09A.49.49,0,0,1,496.89,264.26Zm-2.22-13.37-4.46,3.28a.76.76,0,0,0,0,.17l7,9.67a.07.07,0,0,0,.1,0l4.49-3.3a.15.15,0,0,0,0-.05.1.1,0,0,0,0-.06l-7.06-9.71a.06.06,0,0,0-.06,0Z" class="cls-27"/><path d="M492.35,252s-.55.41-.57.42c.19.25.48.48.7.31S492.51,252.1,492.35,252Z" class="cls-27"/><path d="M492.37,252.4a.14.14,0,0,0-.2,0,.13.13,0,0,0,0,.2.14.14,0,0,0,.2,0A.15.15,0,0,0,492.37,252.4Z" class="cls-39"/><path d="M510.75,263.34l-4.17-2.13-4.23-3.51-1.09-.54-3.25.32L496.13,260s.33,1,3.07-.4c.84-.42,1.92,2.5,1.92,2.5l2.78,1.81.58,2.64,4,3Z" class="cls-36"/><path d="M553.19,219.22l5.76,9.92s.09,2.83-4.44,3.4-6.61-.95-6.61-.95l-.19-6Z" class="cls-36"/><path d="M551.39,215.82a2.87,2.87,0,0,1,3.31-2.17c2.74.38-3.21,12.84-7,14.17s-7.74-5.67-8.88-8.6-3.3-7.74,1.23-9S551.39,215.82,551.39,215.82Z" class="cls-36"/><path d="M570.44,271.55l-23.93,2.87-1.84,64.82s.82,3.88,16.56,4.7,27-1.22,33.34-7.15S606.22,320,606.22,320Z" class="cls-40"/><path d="M558.49,228.81s-2.53,4.14-5.06,4a20.37,20.37,0,0,1-5.87-1.61,64.75,64.75,0,0,0-7.82,7.82c-2.76,3.56-5.66,12-7.73,15s-1.14,9.49-7.35,6.27-6.24-2.77-8.08,1.6c-.61,1.46-9.14-2.75-9.14-2.75l-4.79,6.65s10.79,5.8,11.63,7.1c4.25,6.65,3,7.4,9.13,6.59s9.32,1.15,11.85-3.22,8.85-12.88,8.85-12.88l2.88,12s21.5-.57,23.8-3.8,3-2.3,2-6.32a10.92,10.92,0,0,1,1.26-7.71l5.2,3.37s2.64,1,3.56,8,2.46,3.27,6.83,5.69c3,1.66,5.77,8,5.77,8l6.52-1.13s-3-7.43-2.58-7.66c3.45-2,4.92-1.12,2.28-7s-6.19-6.52-9.52-10.32-14.26-16.68-14.26-16.68a62,62,0,0,0-6.67-6.44C568.84,231.8,558.49,228.81,558.49,228.81Z" class="cls-37"/><path d="M551,217c-1.86-.26-1.53-2.26-4.4-4.05-1.78-1.11-8.91,2-9.65-.84s2.93-8.61,7.7-9.58c7.14-1.47,8.55,4.76,13.43,7.39,4.7,2.52,4.43.81,8.67,3.67s8.81,8.59,8.28,12.3-1.38,9.55-1.38,9.55-3.5-3.5-6.9-4.24-7.84-1.91-7.84-1.91l-5.35-8.87s2.08-4.82.49-6.41S552.82,217.26,551,217Z" class="cls-41"/><path d="M537.09,213s1,4.34,1.59,5.62a56.25,56.25,0,0,0,3.54,6.36c.68.85,3.91,3.54,5.14,2.93s.85,4,.85,4-4.7,2.74-5.8,4.21-2.26,2.81-2.26,2.81-4.7-4-5.74-9.59-.37-14.84-.37-14.84.86-3.48,1.89-3.91S537.09,213,537.09,213Z" class="cls-41"/><path d="M575.44,219a.4.4,0,0,1-.35-.19,22.14,22.14,0,0,0-6.23-6.5A9.19,9.19,0,0,0,565,211.1c-2.5-.36-5.34-.76-9.57-4.9-5.58-5.46-9.48-3.25-9.64-3.16a.4.4,0,1,1-.41-.68c.18-.11,4.55-2.66,10.61,3.27,4,4,6.74,4.34,9.13,4.68a10.14,10.14,0,0,1,4.21,1.29,22.86,22.86,0,0,1,6.5,6.77.41.41,0,0,1-.14.55A.35.35,0,0,1,575.44,219Z" class="cls-41"/><path d="M585.9,272.53a2.87,2.87,0,0,1-2.36-1.11,3,3,0,0,1-.31-2.32,19,19,0,0,1-1.62-6,4.87,4.87,0,0,1,1-3.24.91.91,0,0,0-.38-.29,2.31,2.31,0,0,0-1.8.4c-2.57,1.45-6-1.65-6.19-1.79l-8.18-8a.4.4,0,0,1,.55-.57l8.18,8s3.18,2.85,5.25,1.68a2.94,2.94,0,0,1,2.49-.45,1.66,1.66,0,0,1,.95,1,.39.39,0,0,1-.13.43,3.72,3.72,0,0,0-1,2.86c0,2.14,1.59,5.73,1.6,5.77a.39.39,0,0,1,0,.28,2.35,2.35,0,0,0,.17,1.79,2.16,2.16,0,0,0,1.72.76.4.4,0,0,1,0,.79Z" class="cls-35"/><path d="M544.2,263.74a.4.4,0,0,1-.37-.23c0-.05-2.36-5.14-3.17-7.06-.7-1.67.18-3.51,1.2-5.63.28-.59.57-1.2.85-1.84a18.59,18.59,0,0,0,1.09-6.58.4.4,0,0,1,.39-.41.42.42,0,0,1,.41.39,19.19,19.19,0,0,1-1.16,6.92c-.28.65-.58,1.27-.87,1.87-.93,2-1.74,3.63-1.18,5,.81,1.91,3.15,7,3.17,7a.4.4,0,0,1-.2.53A.45.45,0,0,1,544.2,263.74Z" class="cls-35"/><path d="M548.43,227.83a.4.4,0,0,1-.12-.78,5.07,5.07,0,0,0,3.71-3.84.4.4,0,0,1,.79.11,5.78,5.78,0,0,1-4.26,4.49Z" class="cls-35"/><path d="M516.76,272.31a.4.4,0,0,1-.4-.39c0-.25-.15-6.05,1-8.36.8-1.55,1.46-2.47,1.87-2.59a.55.55,0,0,1,.18,0,63.7,63.7,0,0,1,6.41,1.46,2.89,2.89,0,0,0,2.67-.25,2.05,2.05,0,0,1,2.69.22c2.59,1.84,1.37,3.63,1.36,3.64a.4.4,0,0,1-.66-.45c0-.06.75-1.18-1.16-2.55-1-.67-1.24-.51-1.83-.17a3.68,3.68,0,0,1-3.3.33,61.74,61.74,0,0,0-6.16-1.42,9.51,9.51,0,0,0-1.36,2.16c-1.09,2.13-1,7.91-1,8A.4.4,0,0,1,516.76,272.31Z" class="cls-35"/><path d="M514.53,264.58l-.15,0-7.55-3a.41.41,0,0,1-.22-.52.39.39,0,0,1,.52-.22l7.54,3a.39.39,0,0,1,.23.51A.41.41,0,0,1,514.53,264.58Z" class="cls-35"/><path d="M513.49,266.54l-.16,0-6.92-3a.4.4,0,0,1-.21-.53.38.38,0,0,1,.52-.2l6.93,3a.39.39,0,0,1,.21.52A.4.4,0,0,1,513.49,266.54Z" class="cls-35"/><path d="M512.46,268.51a.45.45,0,0,1-.19-.05l-6.51-3.41a.4.4,0,1,1,.37-.71l6.52,3.41a.4.4,0,0,1,.16.54A.39.39,0,0,1,512.46,268.51Z" class="cls-35"/><path d="M599.94,280.19a.39.39,0,0,1-.36-.24l-2.18-5.18a.41.41,0,0,1,.22-.52.4.4,0,0,1,.52.22l2.17,5.17a.4.4,0,0,1-.21.52A.41.41,0,0,1,599.94,280.19Z" class="cls-35"/><path d="M597.57,280.6a.4.4,0,0,1-.38-.26l-1.76-4.86a.41.41,0,0,1,.24-.51.39.39,0,0,1,.51.24l1.76,4.86a.39.39,0,0,1-.24.51A.3.3,0,0,1,597.57,280.6Z" class="cls-35"/><path d="M596.12,280.91a.41.41,0,0,1-.36-.21l-2.48-4.86a.4.4,0,0,1,.71-.37l2.48,4.86a.4.4,0,0,1-.17.54A.39.39,0,0,1,596.12,280.91Z" class="cls-35"/><polygon points="615.88 336.83 615.5 342.26 616.07 342.69 623.79 341.35 615.88 336.83" class="cls-6"/><polygon points="636.46 318.31 638.96 322.26 639.57 322.26 644.23 317.42 636.46 318.31" class="cls-42"/><polygon points="644.23 317.42 622.01 294.21 620.51 295.76 636.66 319.13 644.23 317.42" class="cls-43"/><path d="M609.87,304.58a.24.24,0,0,1-.2-.11c-.18-.29-4.43-7.25-3.61-10.42a1.94,1.94,0,0,1,.94-1.28c3.27-1.84,10.68,5.26,11,5.56a.23.23,0,0,1-.32.33c-.07-.07-7.48-7.18-10.46-5.5a1.49,1.49,0,0,0-.72,1c-.78,3,3.52,10,3.56,10.08a.22.22,0,0,1-.08.31A.2.2,0,0,1,609.87,304.58Z" class="cls-3"/><path d="M603.34,307.36l17.34-13.86.82,1.23c3.57,5.31,17.49,26,18.07,27.54,0-.12-19.72,11.43-19.72,11.43Z" class="cls-37"/><path d="M616.42,299.68a.54.54,0,0,1,.11-.76.55.55,0,0,1,.76.12.54.54,0,0,1-.12.75A.53.53,0,0,1,616.42,299.68Z" class="cls-43"/><path d="M608.44,305.54a.54.54,0,0,1,.12-.76.54.54,0,0,1,.75.12.53.53,0,0,1-.11.75A.54.54,0,0,1,608.44,305.54Z" class="cls-5"/><path d="M608.81,305.36a.23.23,0,0,1-.2-.13c-.21-.42-5-10.38-1.71-12.24s9.78,5.81,10.06,6.14a.21.21,0,0,1,0,.31.23.23,0,0,1-.32,0c-.06-.08-6.54-7.71-9.49-6-2.44,1.38.54,8.88,1.89,11.65a.22.22,0,0,1-.1.3A.19.19,0,0,1,608.81,305.36Z" class="cls-3"/><polygon points="587.09 328.31 583.84 331.67 583.98 332.27 589.79 335.65 587.09 328.31" class="cls-44"/><polygon points="589.79 335.65 607.1 308.58 605.24 307.49 586.34 328.69 589.79 335.65" class="cls-45"/><path d="M602,305.77l-.11,0a.23.23,0,0,1-.08-.31c0-.09,5.2-9,2.87-11.47a1.49,1.49,0,0,0-1.14-.46c-3.13,0-8.89,5.78-9,5.83a.23.23,0,0,1-.32,0,.22.22,0,0,1,0-.32c.24-.25,5.95-6,9.23-6a2,2,0,0,1,1.51.61c2.56,2.75-2.59,11.63-2.81,12A.23.23,0,0,1,602,305.77Z" class="cls-3"/><path d="M589.92,293.54l17.55,13.58-1,1.1c-4.32,4.71-21.16,23.12-22.5,24,.12,0-15.77-16.47-15.77-16.47Z" class="cls-46"/><path d="M592.6,298.31a.63.63,0,1,1,.63.63A.63.63,0,0,1,592.6,298.31Z" class="cls-45"/><path d="M600.47,304.44a.54.54,0,0,1,.83.69.54.54,0,1,1-.83-.69Z" class="cls-43"/><path d="M601,304.93a.24.24,0,0,1-.13-.05.22.22,0,0,1-.05-.31c.06-.08,5.94-8.17,3.62-10.65-1.91-2.05-8.49,2.62-10.87,4.59a.23.23,0,0,1-.29-.35c.36-.3,8.91-7.32,11.49-4.55s-3.33,10.88-3.58,11.23A.25.25,0,0,1,601,304.93Z" class="cls-3"/><polygon points="623.79 341.35 623.79 303.42 616.45 304.66 615.5 337.73 623.79 341.35" class="cls-5"/><path d="M612.06,305.62a.22.22,0,0,1-.22-.19c0-.12-2.09-11.93-6.07-12.41a1.81,1.81,0,0,0-1.4.45c-2.79,2.28-3.6,11.84-3.61,11.94a.23.23,0,0,1-.25.21.23.23,0,0,1-.2-.25c0-.4.83-9.85,3.78-12.25a2.23,2.23,0,0,1,1.73-.55c4.32.52,6.38,12.28,6.46,12.78a.21.21,0,0,1-.18.26Z" class="cls-3"/><path d="M592.34,303.71l25.82-1s0,.63-.07,1.72c-.3,7.44-1.52,36.48-2,38.31.09-.1-26.4-2.86-26.4-2.86Z" class="cls-4"/><path d="M609.91,305.52a.63.63,0,1,1,.63.63A.63.63,0,0,1,609.91,305.52Z" class="cls-5"/><path d="M598.38,305.52a.63.63,0,0,1,.63-.63.63.63,0,0,1,0,1.26A.63.63,0,0,1,598.38,305.52Z" class="cls-5"/><path d="M599,305.62a.24.24,0,0,1-.23-.27c.1-.54,2.44-13.15,6.8-12.64s5.15,12.17,5.18,12.67a.22.22,0,0,1-.21.24.23.23,0,0,1-.24-.21c0-.12-.83-11.77-4.79-12.25h-.21c-3.81,0-6.06,12.16-6.08,12.28A.23.23,0,0,1,599,305.62Z" class="cls-3"/><path d="M605.42,298.13c.8-.27,2.59-5.69,2.61-6.34.08-2.08-4.78-5.93-5.11-6.6s-1.43-3.63-1.43-3.63l-5.41.94,2.46,4.06a37.31,37.31,0,0,1,.73,4.31c0,.77,1.6,4,1.6,4s-1.59-.36-1.6.42,2,1.32,2,1.32,1.1,2.39,2,2.5.84-1.41.84-1.41S605.11,298.25,605.42,298.13Zm-2.08-3.19-.39-1.83s.83-.74,1.16-.55.29,2.66.29,2.66Z" class="cls-36"/><path d="M445,150.82h63a3,3,0,0,1,2.75,3.18v84.87a3,3,0,0,1-2.75,3.18H445a3,3,0,0,1-2.74-3.18V154A3,3,0,0,1,445,150.82Z" class="cls-1"/><path d="M507.94,242.51H445a3.45,3.45,0,0,1-3.21-3.64V154a3.45,3.45,0,0,1,3.21-3.64h63a3.45,3.45,0,0,1,3.21,3.64v84.87A3.45,3.45,0,0,1,507.94,242.51Zm-63-91.23a2.53,2.53,0,0,0-2.28,2.72v84.87a2.53,2.53,0,0,0,2.28,2.72h63a2.54,2.54,0,0,0,2.29-2.72V154a2.54,2.54,0,0,0-2.29-2.72Z" class="cls-27"/><path d="M491.78,230.65a8.24,8.24,0,1,1,8.24,8.24A8.23,8.23,0,0,1,491.78,230.65Z" class="cls-30"/><path d="M468.3,167.68s1.91,8.79,7.25,9.21,7.53-9.21,7.53-9.21,2-1.21,5.21,1.36c-4.91,11.62.82,19.08.82,19.08l2,28.76h-29.3l.64-28.88s5.32-3.35,1.33-18.61A8.26,8.26,0,0,1,468.3,167.68Z" class="cls-37"/><path d="M500,228.21s-1.57-2.74-3.7-1.34c-4.67,3.07,3.67,9,3.67,9s8.2-6.05,3.83-9C501.7,225.44,500,228.21,500,228.21Z" class="cls-1"/><path d="M500,236.1a.24.24,0,0,1-.16,0c-.21-.15-5.25-3.75-5.19-6.9a3,3,0,0,1,1.53-2.5,2.36,2.36,0,0,1,1.88-.38,3.74,3.74,0,0,1,2,1.48,3.84,3.84,0,0,1,2.06-1.5,2.39,2.39,0,0,1,1.89.4,2.82,2.82,0,0,1,1.39,2.32c.08,3.14-5,6.92-5.22,7.08A.23.23,0,0,1,500,236.1Zm-2.45-9.37a1.94,1.94,0,0,0-1.08.36,2.46,2.46,0,0,0-1.3,2.07c-.05,2.59,4,5.73,4.82,6.36.85-.66,4.92-4,4.86-6.54a2.29,2.29,0,0,0-1.16-1.89,1.91,1.91,0,0,0-1.49-.33,3.74,3.74,0,0,0-1.95,1.59.25.25,0,0,1-.22.12.26.26,0,0,1-.23-.13,3.61,3.61,0,0,0-1.86-1.56A1.74,1.74,0,0,0,497.56,226.73Z" class="cls-27"/><path d="M167.77,280.12a8.24,8.24,0,1,1,8.24,8.23A8.24,8.24,0,0,1,167.77,280.12Z" class="cls-30"/><path d="M176,277.68s-1.57-2.75-3.7-1.35c-4.66,3.07,3.67,9,3.67,9s8.21-6.06,3.84-9C177.69,274.9,176,277.68,176,277.68Z" class="cls-1"/><path d="M176,285.57a.3.3,0,0,1-.15-.05c-.21-.15-5.25-3.76-5.2-6.91a3,3,0,0,1,1.54-2.49,2.32,2.32,0,0,1,1.88-.38,3.72,3.72,0,0,1,2,1.47,3.88,3.88,0,0,1,2.06-1.49,2.32,2.32,0,0,1,1.88.4,2.78,2.78,0,0,1,1.4,2.32c.07,3.13-5,6.92-5.22,7.08A.3.3,0,0,1,176,285.57Zm-2.44-9.37a2,2,0,0,0-1.08.35,2.48,2.48,0,0,0-1.3,2.07c0,2.59,4,5.73,4.82,6.36.84-.66,4.92-4,4.86-6.53a2.28,2.28,0,0,0-1.17-1.9,1.88,1.88,0,0,0-1.48-.32,3.74,3.74,0,0,0-1.95,1.58.28.28,0,0,1-.23.13.25.25,0,0,1-.22-.13,3.65,3.65,0,0,0-1.87-1.57A1.58,1.58,0,0,0,173.55,276.2Z" class="cls-27"/><path d="M208.36,368.74l-4.59,15.74L198.5,382,201,364.67Z" class="cls-47"/><path d="M198.28,380.35c-.63-.06-2.94,3.7-2.41,5.79.31,1.23,2.43.86,5.16,1.18s4.93,1.33,6.81,1.29,7.8-.65,7.8-.65l-.2-1.58s-2.93-.06-4.12-.9-6.14-4.65-6.14-4.65a11.18,11.18,0,0,1-2.87,1.79c-1.38.6-1.55.45-2.2.09C198.94,382.09,199.28,380.43,198.28,380.35Z" class="cls-39"/><path d="M247.17,365.52l.51,16.38-5.78-.71-3-17.27Z" class="cls-47"/><path d="M240.7,378.34c-.64,0-2.38,4.09-1.56,6.08.49,1.16,2.53.5,5.27.42s5.07.62,6.93.3,7.63-1.76,7.63-1.76l-.43-1.53s-2.91.36-4.21-.3-6.74-3.72-6.74-3.72A11,11,0,0,1,245,380c-1.28.79-1.47.66-2.17.41C241.6,380,241.7,378.28,240.7,378.34Z" class="cls-39"/><path d="M246,282.86s1.06,9.58,1.6,12.62.48,30.84.71,37.87-.45,33.06-.45,33.06l2.94,2.51L237,371.38s-2.71-1.1-1.85-3.11,2.65-2.25,2.09-5.08-3.32-9.62-2.75-13.37,2-10.46,1.43-14-5.13-31.09-4.78-31.41C224.93,336.79,209,373.26,209,373.26s-4.13-3.72-6-3.22-3.58,1-3.58,1a4,4,0,0,1-.25-3.11c.57-1.84,2.8-4.42,3.56-7.29a14.29,14.29,0,0,1,.86-2.86s-.07-7.66.58-10.33,3.55-12.7,4.23-17.6,2.75-20,2.35-27.28c-.53-9.78,2.49-23.3,2.49-23.3s5,1.05,8.36,0,6.93,2.51,11.38,2.14S246,282.86,246,282.86Z" class="cls-40"/><path d="M282.33,241.22s-4.4,2.61-5.08,2.93-2.78,1.53-2.78,1.53L269.82,257s2.45-.5,3.56-.58,2.23.05,3.05-.53,3.79-2.44,4.23-2.64,3-.94,3.19-1.18,2-1.64,1.82-2.75c0-.27,2-.57,1.68-1.9s-1.15-.95-1.15-.95l.5-.64s2.49-.24,2.52-1.15a1.46,1.46,0,0,0-.91-1.29Z" class="cls-38"/><path d="M282.86,237.17l6.05,4.4a.25.25,0,0,1,0,.33l-9.14,12.57a.24.24,0,0,1-.33.05l-6.05-4.4a.24.24,0,0,1-.05-.33l9.14-12.56A.24.24,0,0,1,282.86,237.17Z" class="cls-27"/><path d="M282.92,237.71l5.45,4c.16.11.08.49.08.49L279.85,254a.34.34,0,0,1-.49.08l-5.45-4a.35.35,0,0,1-.08-.49l8.6-11.82A.35.35,0,0,1,282.92,237.71Z" class="cls-21"/><path d="M279.57,254.45a.6.6,0,0,1-.36-.12l-5.46-4a.61.61,0,0,1-.13-.85l8.6-11.82a.6.6,0,0,1,.85-.14l5.46,4c.27.19.2.63.18.75a.31.31,0,0,1,0,.1l-8.6,11.83A.6.6,0,0,1,279.57,254.45Zm3.14-16.55a.09.09,0,0,0-.07,0L274,249.77a.08.08,0,0,0,0,.06s0,0,0,.06l5.46,4a.08.08,0,0,0,.12,0l8.56-11.77a.63.63,0,0,0,0-.2l-5.43-4Z" class="cls-27"/><path d="M285.59,239.32s.68.5.69.51c-.22.31-.58.58-.85.37S285.4,239.4,285.59,239.32Z" class="cls-27"/><path d="M285.57,239.76a.18.18,0,0,1,.25,0,.17.17,0,0,1,0,.24.17.17,0,0,1-.28-.2Z" class="cls-39"/><path d="M263.2,253.07l5.08-2.59,5.14-4.27,1.32-.66,4,.39L281,249s-.4,1.22-3.74-.48c-1-.52-2.33,3-2.33,3l-3.39,2.2-.7,3.21L266,260.64Z" class="cls-36"/><path d="M232.31,217s1.14,5.35,3.44,5.67,5.6.62,5.19.35-.26-1.94-.26-1.94,5.36,2.45,7.6,5.15,2.94,5.13,4.15,8.65,4,20.11,4,20.11l9.69-4.74,4.81,8.65s-13.91,11-16.93,11.29-6.09-2.68-6.09-2.68l-1.42,6.37.55,6.29.72,3.4s-8,2.27-12.51.33-5.44-3.13-10.54-3.5-6.06,0-10.43,0-3.76-2.81-3.76-2.81l1.88-1.89-1.16-2.32-.15-3.09s-13.66-.37-14.72-9.43,7.23-25.65,7.23-25.65,3.87-6.77,7.39-10.45S232.31,217,232.31,217Z" class="cls-37"/><path d="M247.68,264.77h-.09a.39.39,0,0,1-.3-.46c1.05-4.9,1.16-24.26,1.16-24.46a.39.39,0,0,1,.78,0c0,.8-.12,19.64-1.18,24.61A.38.38,0,0,1,247.68,264.77Z" class="cls-35"/><path d="M237.26,270.18l7.33,3.25,4.8,1.95,1.75,5.18-1.82,4.5-5.6,3.63,0-2s3.27-2.07,3.15-3.31c-.4-4.08-4.32-2.59-4.32-2.59a2.27,2.27,0,0,1-2.92.71c-1.12-.49-3.24-3.69-3.24-3.69l-4-1.86Z" class="cls-36"/><path d="M265.93,319.7l53.82-7,4.27,33-53.82,7Z" class="cls-48"/><path d="M298,315.2l22.52-2.91,4.27,33-22.52,2.91Z" class="cls-49"/><path d="M306,314.24l1.47,8.79,1.68-1.58L311,323.1l1.45-1.72,1.95,1-1.33-9Z" class="cls-50"/><path d="M277.48,314.29a.22.22,0,0,1-.22-.22c0-.49.32-11.88,5.72-12.52a3.38,3.38,0,0,1,2.69.85c3.16,2.73,3.42,10.93,3.43,11.28a.22.22,0,0,1-.21.23.22.22,0,0,1-.23-.22c0-.08-.27-8.35-3.28-10.95A2.93,2.93,0,0,0,283,302c-5,.59-5.33,12-5.33,12.09A.21.21,0,0,1,277.48,314.29Z" class="cls-3"/><path d="M273.61,309.51,273,352.74l29.57-3.83-.95-39.24Z" class="cls-37"/><path d="M268.22,309.54l2.88,0-.83,38.49-3.37,1.13Z" class="cls-37"/><path d="M271,309.64h2.71L273,352.43l-2.91-4.52Z" class="cls-43"/><path d="M267,349.22l3.48-1.3,2.68,4.58Z" class="cls-51"/><path d="M282.2,313.49a.21.21,0,0,1-.21-.22c0-.49.32-11.89,5.72-12.52a3.37,3.37,0,0,1,2.69.85c3.15,2.73,3.42,10.93,3.43,11.28a.23.23,0,0,1-.21.23.21.21,0,0,1-.23-.22c0-.08-.27-8.35-3.28-11a3,3,0,0,0-2.35-.74c-5,.59-5.33,12-5.33,12.09A.23.23,0,0,1,282.2,313.49Z" class="cls-3"/><path d="M298.44,328.17a.22.22,0,0,1-.21-.23c0-.28.18-6.83,3.33-7.19a2,2,0,0,1,1.6.5c1.82,1.58,2,6.27,2,6.47a.22.22,0,0,1-.21.23.22.22,0,0,1-.23-.21c0-.05-.15-4.71-1.83-6.16a1.59,1.59,0,0,0-1.26-.4c-2.77.33-2.94,6.71-2.94,6.77A.24.24,0,0,1,298.44,328.17Z" class="cls-3"/><path d="M296.25,325.36l-.35,24.54,16.79-2.17-.55-22.28Z" class="cls-46"/><path d="M293.19,325.38l1.64,0-.47,21.85-1.92.64Z" class="cls-46"/><path d="M294.76,325.43h1.54l-.37,24.29-1.65-2.56Z" class="cls-45"/><path d="M292.47,347.9l2-.74,1.52,2.61Z" class="cls-52"/><path d="M301.13,327.71a.22.22,0,0,1-.22-.22c0-.28.19-6.83,3.33-7.2a2,2,0,0,1,1.6.51c1.83,1.57,2,6.27,2,6.47a.21.21,0,0,1-.21.22.22.22,0,0,1-.22-.21s-.16-4.7-1.84-6.15a1.52,1.52,0,0,0-1.26-.4c-2.77.32-2.94,6.7-2.94,6.77A.21.21,0,0,1,301.13,327.71Z" class="cls-3"/><path d="M292.91,293.65H325.3v19.06H292.91Z" class="cls-30"/><path d="M292.91,293.65h9.53v19.06h-9.53Z" class="cls-48"/><path d="M261.66,376.23a.72.72,0,0,0,.11.65.73.73,0,0,0,.59.3h17.32a6.25,6.25,0,0,0-2,4.58,5.6,5.6,0,1,0,11.16,0,6.21,6.21,0,0,0-2-4.58H315a6.21,6.21,0,0,0-2,4.58,5.6,5.6,0,1,0,11.16,0,6.25,6.25,0,0,0-2-4.58h6.21a.74.74,0,0,0,0-1.48h-65l2.9-9.42a7,7,0,0,1,5.45-5L310.88,355a.74.74,0,0,0-.24-1.46l-39.16,6.29a8.42,8.42,0,0,0-6.63,6Zm56.91.95a4.6,4.6,0,1,1-4.1,4.58A4.36,4.36,0,0,1,318.57,377.18Zm-35.28,0a4.6,4.6,0,1,1-4.1,4.58A4.36,4.36,0,0,1,283.29,377.18Z" class="cls-53"/><path d="M241.14,283.24a3.34,3.34,0,0,0,3.21,3.45,3.26,3.26,0,0,0,3.13-2.71h1.44a4.79,4.79,0,0,1,4.55,4.23l10.29,63a5.86,5.86,0,0,0,2.37,3.91,5.15,5.15,0,0,0,3,1,4.54,4.54,0,0,0,.82-.07L337,345a5,5,0,0,0,4-4.32l1.17-7.64a.74.74,0,0,0,.36-.75.69.69,0,0,0-.19-.37l4.31-28.3a5.38,5.38,0,0,0-1.21-4.34,4.55,4.55,0,0,0-3.47-1.63H256.51L254.93,288a6.27,6.27,0,0,0-6-5.47h-1.44a3.26,3.26,0,0,0-3.13-2.71A3.34,3.34,0,0,0,241.14,283.24Zm18.35,32.64,6.48-.37,1.82,12.67-6.2.61Zm2.34,14.37,6.17-.6,1.91,13.28-5.86.91Zm79.1,1.58-5,.78.79-9.65,5.62-.55ZM302.79,313.4l10.86-.63v11l-10.68,1Zm-1.29,11.5-9.86,1-.73-11.78,10.4-.6Zm13.63-12.21,10.12-.58-.51,10.53-9.61.94Zm9.54,11.45-.5,10.31-9,1.41v-10.8Zm-11,12-10.46,1.63L303,326.24l10.65-1ZM301.72,338l-9.24,1.44-.75-12.06,9.79-.95ZM291,339.63l-9.75,1.53-1.38-12.67,10.38-1ZM279.71,327l-1.33-12.22,11.06-.64.73,11.85Zm-1.49-13.69-1.55-14.18h11.84l.83,13.54ZM290,299.15h11.08l.21,12.85-10.46.6Zm12.56,0h11.1v12.14l-10.89.63Zm12.58,0h10.75l-.55,11.47-10.2.59Zm12.23,0h9.84L336.31,310l-9.5.55Zm8.83,12.33-.83,10.13-9.13.89.51-10.48Zm1.49-.08,6.42-.37-1.51,9.88-5.73.56Zm-3.23,21.45-8.79,1.37.5-10.23,9.08-.88Zm-.13,1.51-.79,9.75-8.42,1.38.48-9.76Zm-10.7,11.38-8.49,1.4v-9.78l9-1.4Zm-10,1.64-10.27,1.69-.16-9.85,10.43-1.63Zm-11.75,1.93-8.72,1.44-.61-9.86,9.17-1.44ZM291.71,351l-9.21,1.51-1.08-9.87,9.68-1.52ZM281,352.74l-8,1.33-1.42-9.9,8.38-1.31Zm-9.67-10-1.9-13.19,8.93-.87,1.4,12.74Zm-3.92-27.27,9.45-.55,1.34,12.29-9,.87Zm-.21-1.47-2.12-14.81h10.06l1.56,14.26Zm78-10.54-.93,6.11-6.53.38.88-10.76H342a3.09,3.09,0,0,1,2.35,1.12A3.93,3.93,0,0,1,345.26,303.42Zm-8.46,40.15-1.77.29.8-9.73,4.87-.76-1.09,7.12A3.54,3.54,0,0,1,336.8,343.57ZM265.22,351l-.93-5.69,5.83-.91,1.42,9.92-1.81.29a3.62,3.62,0,0,1-2.74-.66A4.47,4.47,0,0,1,265.22,351Zm-8.46-51.84h6.86L265.76,314l-6.51.38Zm-14.14-15.91a1.74,1.74,0,1,1,1.73,2A1.86,1.86,0,0,1,242.62,283.24Z" class="cls-53"/><path d="M231,278l-.11,0-20-6a.4.4,0,0,1-.26-.49.39.39,0,0,1,.48-.26l19.72,5.95,7.24-9.09-19.64-10.42L209,259.89a.4.4,0,0,1-.45-.24.39.39,0,0,1,.17-.48l7.45-4.28,4.84-18a.4.4,0,0,1,.48-.28.39.39,0,0,1,.27.48l-4.89,18.18a.36.36,0,0,1-.18.24l-5.26,3,7-1.66a.37.37,0,0,1,.27,0l20.17,10.7a.4.4,0,0,1,.2.27.41.41,0,0,1-.08.32l-7.69,9.66A.37.37,0,0,1,231,278Z" class="cls-35"/><path d="M240.54,220.11a.35.35,0,0,1-.2-.05c-3-1.82-4.13-5.63-4.18-5.79a.38.38,0,0,1,.26-.48.38.38,0,0,1,.48.26s1.15,3.69,3.85,5.35a.39.39,0,0,1,.12.53A.38.38,0,0,1,240.54,220.11Z" class="cls-35"/><path d="M234.69,211.2s0,3.85-2.38,5.81,2.48,6.88,4.85,7.15c3.52.4,5.05-1.36,5.05-1.36l.42-2.18Z" class="cls-36"/><path d="M237.73,210.12s-.75-4.36,3.28-5.79a74.82,74.82,0,0,1,8.35-2.32s2,3.78,1.85,5.59-2.58,14.6-7.21,14-9.14-7-9.14-7-2.25-5.28-.6-6.24S237.73,210.12,237.73,210.12Z" class="cls-36"/><path d="M237.84,210.31c1.49-.91.51-4.64,2.77-5.42s7-1.88,9.12-.92c1.12.51,1.66,2.65,1.66,2.65s1.54-.22,1.57-2.92-1.5-5.71-2.58-6.22a9.81,9.81,0,0,0-8.93.47s-2.19-3.07-4.84-1.49-3.62,5.78-3.62,5.78-1.61-1.45-2.24.95a10.23,10.23,0,0,0-.36,4s-1.43-1.53-1.46.9.74,4.19,1.6,4.76,3.78,2.64,3.78,2.64l.2-2.21s-1-3.69.05-4.8S236.35,211.22,237.84,210.31Z" class="cls-54"/><path d="M238.59,209.16a37.26,37.26,0,0,0,1.24,5.05c.39.53,4.63.4,6.48.59a3.61,3.61,0,0,1,3,1.7,25.65,25.65,0,0,1-.31,4.68c-.47,1.68-2.16,3.69-6,2a17.57,17.57,0,0,1-6.13-4.57,4.37,4.37,0,0,1-1-2.39l-.19-2.27,1.05-4.47Z" class="cls-54"/><path d="M141.84,117.34h42c.94,0,1.71,1.17,1.71,2.62v32.38c0,1.44-.77,2.62-1.71,2.62h-42c-1,0-1.72-1.18-1.72-2.62V120C140.12,118.51,140.89,117.34,141.84,117.34Z" class="cls-1"/><path d="M183.85,155.36h-42c-1.19,0-2.12-1.33-2.12-3V120c0-1.7.93-3,2.12-3h42c1.18,0,2.11,1.33,2.11,3v32.38C186,154,185,155.36,183.85,155.36Zm-42-37.62c-.71,0-1.31,1-1.31,2.22v32.38c0,1.2.6,2.21,1.31,2.21h42c.71,0,1.3-1,1.3-2.21V120c0-1.21-.59-2.22-1.3-2.22Z" class="cls-27"/><path d="M230.84,122.82l-.5-.42a22.84,22.84,0,0,1-2-1.86l-.45-.47.95-.91.45.48a24.11,24.11,0,0,0,1.84,1.76l.5.41ZM225.36,117l-.38-.53q-.75-1-1.5-2.19l-.35-.55,1.11-.7.35.55c.48.76,1,1.47,1.44,2.12l.39.53Zm-4.15-6.79-.27-.59q-.54-1.19-1-2.46l-.23-.61,1.22-.46.23.61q.47,1.23,1,2.37l.27.6Zm-2.65-7.51-.14-.64c-.18-.85-.33-1.72-.45-2.62l-.09-.64,1.3-.18.09.65c.11.86.26,1.7.43,2.52l.14.64Zm.42-7.88-1.31,0,0-.65c0-.87.08-1.75.17-2.65l.07-.65,1.29.13-.06.65c-.09.87-.14,1.72-.17,2.55Zm.91-7.63-1.27-.31.16-.64c.21-.83.45-1.68.73-2.55l.2-.62,1.24.4-.2.62c-.27.84-.5,1.66-.7,2.47Zm2.44-7.3-1.19-.54.27-.59c.37-.83.76-1.62,1.16-2.38l.31-.58,1.15.61-.3.58c-.39.73-.77,1.5-1.13,2.3ZM226,73.15,225,72.39l.38-.53c.53-.74,1.07-1.44,1.62-2.11l.42-.5,1,.84-.41.5c-.54.64-1.06,1.31-1.57,2Zm5-5.8-.87-1,.49-.43c.69-.61,1.38-1.17,2.06-1.69l.52-.39.79,1-.52.39q-1,.75-2,1.62Zm6.2-4.5-.61-1.16.57-.3c.83-.45,1.63-.83,2.4-1.17l.6-.26.52,1.2-.6.26c-.73.32-1.51.69-2.3,1.12Zm7.09-2.93L244,58.65l.64-.15a20.6,20.6,0,0,1,2.66-.51l.65-.07.14,1.3-.65.07a21.32,21.32,0,0,0-2.49.47Z" class="cls-27"/><path d="M172.6,145.85H153.1a1.78,1.78,0,0,1-1.77-1.77V131a1.75,1.75,0,0,1,1.75-1.75h19.5a1.76,1.76,0,0,1,1.77,1.76v13.13A1.75,1.75,0,0,1,172.6,145.85Zm-20.46-14.58v12.51a1.25,1.25,0,0,0,1.25,1.26h18.89a1.27,1.27,0,0,0,1.26-1.27V131.26a1.26,1.26,0,0,0-1.25-1.26H153.41A1.27,1.27,0,0,0,152.14,131.27Z" class="cls-27"/><path d="M151.85,133.16a.41.41,0,0,1-.41-.4.42.42,0,0,1,.41-.41l21.81-.07a.4.4,0,0,1,.4.4.39.39,0,0,1-.4.4Z" class="cls-27"/><path d="M151.94,142.69a.41.41,0,0,1,0-.81l21.81-.07a.41.41,0,0,1,.41.4.4.4,0,0,1-.41.4Z" class="cls-27"/><path d="M156.33,130.14a.4.4,0,0,1-.4-.43l.24-4a.37.37,0,0,1,.16-.3.36.36,0,0,1,.33-.07L172,129a.4.4,0,0,1,.3.48.4.4,0,0,1-.49.3l-14.91-3.47-.21,3.49A.4.4,0,0,1,156.33,130.14Z" class="cls-27"/><path d="M171.72,129.45a.58.58,0,0,1-.18,0l-11.09-5.36-.11,2.3a.38.38,0,0,1-.42.38.4.4,0,0,1-.39-.42l.14-2.91a.42.42,0,0,1,.2-.33.39.39,0,0,1,.38,0l11.64,5.62a.4.4,0,0,1,.19.54A.41.41,0,0,1,171.72,129.45Z" class="cls-27"/><path d="M178.74,200.14h18.63c.42,0,.76.64.76,1.42V219c0,.78-.34,1.42-.76,1.42H178.74c-.42,0-.76-.64-.76-1.42V201.56C178,200.78,178.32,200.14,178.74,200.14Z" class="cls-1"/><path d="M197.37,220.74H178.74c-.6,0-1.06-.73-1.06-1.71V201.56c0-1,.46-1.71,1.06-1.71h18.63c.6,0,1,.73,1,1.71V219C198.42,220,198,220.74,197.37,220.74Zm-18.63-20.3c-.18,0-.46.44-.46,1.12V219c0,.68.28,1.12.46,1.12h18.63c.18,0,.46-.44.46-1.12V201.56c0-.68-.28-1.12-.46-1.12Z" class="cls-27"/><polygon points="188.05 202.92 190.28 207.43 195.25 208.15 191.65 211.66 192.5 216.62 188.05 214.28 183.6 216.62 184.45 211.66 180.85 208.15 185.83 207.43 188.05 202.92" class="cls-55"/><path d="M158.76,320.22h37.07c.83,0,1.51,1.27,1.51,2.84v35c0,1.57-.68,2.84-1.51,2.84H158.76c-.84,0-1.51-1.27-1.51-2.84v-35C157.25,321.49,157.92,320.22,158.76,320.22Z" class="cls-1"/><path d="M195.83,361.24H158.76c-1,0-1.81-1.38-1.81-3.14v-35c0-1.76.8-3.13,1.81-3.13h37.07c1,0,1.81,1.37,1.81,3.13v35C197.64,359.86,196.84,361.24,195.83,361.24Zm-37.07-40.72c-.58,0-1.22,1-1.22,2.54v35c0,1.5.64,2.54,1.22,2.54h37.07c.57,0,1.22-1,1.22-2.54v-35c0-1.5-.65-2.54-1.22-2.54Z" class="cls-27"/><rect width="24.69" height="24.69" x="164.58" y="328.86" class="cls-30" rx="2.21"/><path d="M171.83,337.3a6.52,6.52,0,0,1,1.29-4.47,4.9,4.9,0,0,1,3.65-1.64,4.55,4.55,0,0,1,3.61,1.22,6.59,6.59,0,0,1,1.59,4.53l-1.18-.05a5.51,5.51,0,0,0-1.25-3.64,3.43,3.43,0,0,0-2.71-.88,3.81,3.81,0,0,0-2.81,1.22,5.42,5.42,0,0,0-1,3.59Z" class="cls-28"/><path d="M169.29,349.9a1.8,1.8,0,0,1-1.8-1.79l1.54-9.46a1.77,1.77,0,0,1,1.78-1.7h12.88a1.8,1.8,0,0,1,1.79,1.8l1.45,9.09a1.82,1.82,0,0,1-1.79,1.89Zm1.52-11.76a.61.61,0,0,0-.61.61l-1.53,9.46a.6.6,0,0,0,.61.51l15.86-.18a.61.61,0,0,0,.61-.61l-1.44-9.09a.64.64,0,0,0-.62-.7Z" class="cls-28"/><polygon points="175.42 347.94 173.13 342.58 174.22 342.12 175.75 345.69 181.01 339.28 181.93 340.03 175.42 347.94" class="cls-28"/><path d="M474.61,107a19.61,19.61,0,1,1,19.61,19.56A19.58,19.58,0,0,1,474.61,107Z" class="cls-1"/><path d="M494.22,126.93a20,20,0,1,1,20-20A20,20,0,0,1,494.22,126.93Zm0-39.11A19.14,19.14,0,1,0,513.41,107,19.19,19.19,0,0,0,494.22,87.82Z" class="cls-27"/><path d="M494.28,118.23a.43.43,0,0,1-.34-.18c-.28-.39-7.06-9.73-7.06-13.82a7.34,7.34,0,1,1,14.67,0c0,4.09-6.64,13.43-6.93,13.82A.39.39,0,0,1,494.28,118.23Zm-.06-20.82a6.67,6.67,0,0,0-6.5,6.82c0,3.32,5.17,10.88,6.56,12.85,1.37-2,6.44-9.53,6.44-12.85A6.68,6.68,0,0,0,494.22,97.41Z" class="cls-27"/><path d="M494.26,108.11a4.33,4.33,0,1,1,4.44-4.33A4.4,4.4,0,0,1,494.26,108.11Zm0-7.82a3.49,3.49,0,1,0,3.61,3.49A3.55,3.55,0,0,0,494.26,100.29Z" class="cls-27"/><path d="M496.89,372.66l10.19,3.73L512,371.3l-6.24-4.11Z" class="cls-36"/><path d="M504.79,376.16s2.34,2,4.64,3.59,3.31,2.09,5.57.77,2.64-4.53,3.62-5.87,5.22-6.73,5.22-6.73.84-3.68-.07-4.21c-1.51-.88-4,2.17-5.9,3.8s-8,2.39-8,2.39Z" class="cls-56"/><path d="M399.49,376.82c3.74,8,13.64,7.92,18.83,6.62s36.6-14.17,36.6-14.17,12.59,2.38,18.77,3.13,2.41,2.27,4.46,4.25,3.84-.38,6.08.55,1.44,2.61,3.29,3.29,6.65-.89,6.65-.89l14.89-13.85S474.25,349,469.59,348.43c-6.75-.76-60.25,16.71-60.25,16.71S395.38,368,399.49,376.82Z" class="cls-24"/><path d="M394.75,382.11c1.64,7.53,15,6.09,20.19,4.8s36.6-14.18,36.6-14.18,12.59,2.39,18.77,3.13,2.41,2.27,4.47,4.26,3.83-.38,6.07.55,1.44,2.61,3.29,3.28,6.65-.89,6.65-.89l11.72-8.21s-40.8-19.58-48.1-20.18-50.75,12-50.75,12S393.11,374.57,394.75,382.11Z" class="cls-19"/><path d="M388.46,368.26c-.8-.52-1.46,6.32.27,10.18s6.53,5.59,6.53,5.59a13,13,0,0,1,1.19-7.06c1.74-3.33,3.82-7.75,3.82-7.75S389.25,368.78,388.46,368.26Z" class="cls-40"/><path d="M491.77,382.37l7.83,2.74,5.43-5.2-5-3.31Z" class="cls-36"/><path d="M499.12,385.65s2.33,2,4.62,3.58,3.29,2.08,5.54.76,2.63-4.5,3.6-5.84,5.19-6.69,5.19-6.69.84-3.66-.07-4.19c-1.5-.87-4,2.16-5.86,3.78s-7.92,2.38-7.92,2.38Z" class="cls-40"/><path d="M431.7,358.42l33.38-9.62,6-21.45a1.14,1.14,0,0,0-1.35-1.41l-11.14,2.64a2.18,2.18,0,0,0-1.59,1.48l-6.28,20.7L433,356.23Z" class="cls-57"/><path d="M501.85,375.37a.28.28,0,0,1-.13,0c-.38-.19-37.79-18.48-41.85-20.34s-6-1.29-6-1.28a.31.31,0,0,1-.37-.21.3.3,0,0,1,.21-.36c.09,0,2.27-.6,6.43,1.31S501.6,374.62,502,374.8a.31.31,0,0,1,.13.4A.3.3,0,0,1,501.85,375.37Z" class="cls-35"/><path d="M441.83,374.63a.28.28,0,0,1-.28-.21.29.29,0,0,1,.2-.37,46.22,46.22,0,0,0,6.47-2.4,9.21,9.21,0,0,0,2.57-3.07c.67-1.07,1.15-1.84,1.68-2a.5.5,0,0,1,.49.12c.31.32.13,1-.23,2.29a8.87,8.87,0,0,0-.38,1.68,5.41,5.41,0,0,0,.48-.61c.46-.64.89-1.24,1.42-1.08.79.23.8,2,.77,2.76.33.09,1,.25,2.16.47a25.54,25.54,0,0,0,5.69.56.29.29,0,0,1,.32.27.31.31,0,0,1-.27.32,26.41,26.41,0,0,1-5.85-.57c-2.92-.54-2.91-.72-2.89-1a.33.33,0,0,1,.26-.3c0-1-.18-1.88-.36-1.94s-.57.59-.77.87c-.38.52-.68.93-1,.93-.12,0-.26,0-.39-.23-.25-.36-.05-1.1.28-2.29a7.82,7.82,0,0,0,.37-1.63,6.82,6.82,0,0,0-1.24,1.68,9.55,9.55,0,0,1-2.79,3.27,46.24,46.24,0,0,1-6.59,2.45Z" class="cls-35"/><path d="M463.28,339.54c-.18.69-.69,1.15-1.13,1s-.66-.77-.48-1.45.69-1.16,1.13-1S463.46,338.85,463.28,339.54Z" class="cls-58"/><path d="M428.43,352.4l1,6.54a8.34,8.34,0,0,0,3.78-2.68c1.21-1.49,16.32-4.81,16.32-4.81l-4.36-2.52s-5.79-.55-8.24.06a19.3,19.3,0,0,0-5,2.28Z" class="cls-36"/><path d="M420.9,318.29l-2.84,2.31L415.44,325a12.13,12.13,0,0,0,4.19,3.59,10.5,10.5,0,0,0,5.23.73l.74-4.84Z" class="cls-36"/><path d="M423.52,314.12s-1.45-4-3.47-2.26,2.43,13.7,6.38,13.9,8.43-6,9.79-8.93,3-6.12-.27-8.61C429.29,303.13,423.52,314.12,423.52,314.12Z" class="cls-36"/><path d="M418.14,320.76l2.63-2.14s-2.19-6.63-.18-7.11,2.16,1.75,3.06,3.05c1.21,1.73.8-4.66,5.34-5.83,4.8-1.23,6.25,2.7,7.27,3.86a5.25,5.25,0,0,0,6.39,1.14c2.26-1.35,3-5.23.73-9.26s-3.76-1.75-5.2-2.63,1.51-3.62-3.3-4.64c-4.56-1-6.14,4.15-8.42,4.39s-2.67-.86-4-.55c-2.88.65-4.65.51-5.9,6.26C415.23,313.26,418.14,320.76,418.14,320.76Z" class="cls-54"/><path d="M416.74,322.77s-8.57,1.73-13.48,4.34c-7.89,4.18-22,32.41-19.51,38.12,6.53,15.27,46-5.75,46-5.75l-1.06-7.31,3.56-.77,4.62-2.41s-2.31-12.88-4.62-15.58a42.35,42.35,0,0,0-6.93-6.55c-.23-.28.44,2.16-1.51,2.08s-4.62-.38-6.2-2.1C415.36,324.4,416.74,322.77,416.74,322.77Z" class="cls-40"/><path d="M397.83,362.15a.32.32,0,0,1-.18-.06.29.29,0,0,1-.08-.37l1.3-2.68-1.81.29a.28.28,0,0,1-.31-.16.29.29,0,0,1,.07-.35l2.81-2.53a115.6,115.6,0,0,0,6.73-10c2.58-4.42,5.3-8.85,5.33-8.89a.29.29,0,0,1,.4-.1.3.3,0,0,1,.1.41s-2.74,4.47-5.32,8.88a112.54,112.54,0,0,1-6.81,10.12l-2.1,1.91,1.38-.23a.3.3,0,0,1,.28.12.28.28,0,0,1,0,.3l-.91,1.88,2.71-2.39a.33.33,0,0,1,.13-.07l26.68-6.58a.29.29,0,0,1,.24.05.28.28,0,0,1,.13.2l.86,6.94a.3.3,0,0,1-.26.33.3.3,0,0,1-.33-.26l-.82-6.6-26.29,6.48L398,362.08A.31.31,0,0,1,397.83,362.15Z" class="cls-35"/><path d="M425.37,325.86a.51.51,0,0,1-.17,0c-2.89-1.26-4.18-5.31-4.23-5.48a.41.41,0,0,1,.28-.52.41.41,0,0,1,.52.27s1.23,3.85,3.77,5a.42.42,0,0,1-.17.8Z" class="cls-54"/><path d="M449.66,287.61l-.14-.39a16.94,16.94,0,0,1-.51-1.65l-.1-.4.81-.21.1.4a15.11,15.11,0,0,0,.48,1.56l.15.4Zm-1.26-4.95-.06-.42c-.08-.52-.15-1.09-.21-1.68l0-.42.83-.08,0,.42c.06.58.13,1.13.21,1.64l.06.42Zm.39-5.07H448V277c0-.48,0-1,0-1.48l0-.42.84,0,0,.42c0,.5,0,1,0,1.45Zm.26-5-.83-.11.06-.41c.07-.55.16-1.11.26-1.68l.08-.41.82.15-.07.41c-.11.56-.19,1.1-.26,1.64Zm.95-4.87-.81-.23.32-1.09c.09-.32.19-.63.3-.94l.14-.39.79.28-.14.39c-.1.3-.2.6-.29.9S450,267.75,450,267.75Zm1.72-4.63-.75-.38.19-.38c.27-.51.55-1,.84-1.48l.22-.36.71.44-.21.35q-.44.7-.81,1.44Zm2.63-4.18-.66-.52.26-.33c.36-.45.72-.89,1.09-1.3l.28-.32.63.56-.28.31c-.36.41-.72.83-1.06,1.27Zm3.34-3.67-.56-.62.31-.28c.43-.39.86-.76,1.28-1.11l.33-.26.53.64-.33.27c-.41.34-.83.7-1.25,1.08Zm3.88-3.11-.47-.69.34-.24c.53-.35,1-.66,1.44-.91l.36-.22.43.72-.36.22c-.41.25-.88.54-1.4.89Z" class="cls-27"/><path d="M114.51,177l-.24-.34a15.88,15.88,0,0,1-.91-1.48l-.2-.36.73-.41.21.37a14.07,14.07,0,0,0,.85,1.39l.24.34Zm-2.42-4.53-.15-.39q-.28-.76-.54-1.62l-.11-.4.8-.24.12.4c.16.56.33,1.08.52,1.57l.14.39Zm-1.33-4.94-.05-.42c-.07-.57-.12-1.14-.14-1.71V165l.84,0v.42c0,.53.06,1.08.13,1.63l0,.42Zm.78-5-.83-.13.07-.42c.09-.56.2-1.13.34-1.68l.11-.4.81.2-.1.41c-.14.52-.25,1.06-.34,1.6Zm1.33-4.71-.76-.36.18-.38c.25-.51.52-1,.81-1.51l.21-.37.72.43-.21.36c-.28.47-.54,1-.77,1.45Zm2.58-4.19-.66-.53.27-.33c.36-.45.73-.88,1.11-1.28l.28-.31.62.56-.28.31c-.37.4-.73.81-1.08,1.25Zm3.4-3.58-.54-.65.32-.27c.45-.37.9-.71,1.36-1l.34-.25.48.69-.34.24c-.43.31-.87.64-1.3,1Zm4.06-2.78-.37-.75.38-.18c.52-.26,1-.49,1.55-.7l.39-.16.32.78-.39.15c-.5.2-1,.43-1.5.68ZM139,145.77l-.32-.1s-.39-.12-1-.25l-.4-.1.18-.81.41.09c.61.14,1,.26,1,.27l.19.07.15.38Zm-11.48-.25-.18-.82.4-.09c.58-.13,1.14-.24,1.68-.32l.42-.06.12.83-.41.06q-.79.12-1.62.3Zm7.37-.55-.42,0c-.51,0-1.06-.06-1.64-.06h-.42V144h.42c.6,0,1.17,0,1.7.06l.42,0Z" class="cls-27"/><path d="M152.1,372.87h40.76v5.92H152.1Z" class="cls-59"/><rect width="1.2" height="5.38" x="152.77" y="373.21" class="cls-60"/><rect width="1.2" height="5.38" x="154.97" y="373.21" class="cls-60"/><rect width="1.2" height="5.38" x="157.58" y="373.21" class="cls-60"/><rect width="1.2" height="5.38" x="159.78" y="373.21" class="cls-60"/><rect width="1.2" height="5.38" x="162.27" y="373.21" class="cls-60"/><rect width="1.2" height="5.38" x="164.47" y="373.21" class="cls-60"/><rect width="1.2" height="5.38" x="166.89" y="373.21" class="cls-61"/><rect width="1.2" height="5.38" x="169.09" y="373.21" class="cls-61"/><rect width="1.2" height="5.38" x="171.58" y="373.21" class="cls-61"/><rect width="1.2" height="5.38" x="173.78" y="373.21" class="cls-61"/><rect width="1.2" height="5.38" x="176.47" y="373.21" class="cls-61"/><rect width="1.2" height="5.38" x="178.67" y="373.21" class="cls-61"/><rect width="1.2" height="5.38" x="181.16" y="373.21" class="cls-61"/><rect width="1.2" height="5.38" x="183.36" y="373.21" class="cls-61"/><rect width="1.2" height="5.38" x="185.63" y="373.21" class="cls-61"/><rect width="1.2" height="5.38" x="188.12" y="373.21" class="cls-61"/><rect width="1.2" height="5.38" x="190.32" y="373.21" class="cls-61"/><path d="M143.61,378.83h40.76v5.92H143.61Z" class="cls-62"/><rect width="1.2" height="5.38" x="144.28" y="379.17" class="cls-60"/><rect width="1.2" height="5.38" x="146.48" y="379.17" class="cls-60"/><rect width="1.2" height="5.38" x="149.08" y="379.17" class="cls-60"/><rect width="1.2" height="5.38" x="151.29" y="379.17" class="cls-60"/><rect width="1.2" height="5.38" x="153.77" y="379.17" class="cls-60"/><rect width="1.2" height="5.38" x="155.98" y="379.17" class="cls-60"/><rect width="1.2" height="5.38" x="158.4" y="379.17" class="cls-61"/><rect width="1.2" height="5.38" x="160.6" y="379.17" class="cls-61"/><rect width="1.2" height="5.38" x="163.09" y="379.17" class="cls-61"/><rect width="1.2" height="5.38" x="165.29" y="379.17" class="cls-61"/><rect width="1.2" height="5.38" x="167.98" y="379.17" class="cls-61"/><rect width="1.2" height="5.38" x="170.18" y="379.17" class="cls-61"/><rect width="1.2" height="5.38" x="172.67" y="379.17" class="cls-61"/><rect width="1.2" height="5.38" x="174.87" y="379.17" class="cls-61"/><rect width="1.2" height="5.38" x="177.14" y="379.17" class="cls-61"/><rect width="1.2" height="5.38" x="179.63" y="379.17" class="cls-61"/><rect width="1.2" height="5.38" x="181.83" y="379.17" class="cls-61"/><path d="M135.2,367.19H176v5.92H135.2Z" class="cls-63"/><rect width="1.2" height="5.38" x="135.86" y="367.53" class="cls-60"/><rect width="1.2" height="5.38" x="138.06" y="367.53" class="cls-60"/><rect width="1.2" height="5.38" x="140.67" y="367.53" class="cls-60"/><rect width="1.2" height="5.38" x="142.87" y="367.53" class="cls-60"/><rect width="1.2" height="5.38" x="145.36" y="367.53" class="cls-60"/><rect width="1.2" height="5.38" x="147.56" y="367.53" class="cls-60"/><rect width="1.2" height="5.38" x="149.98" y="367.53" class="cls-61"/><rect width="1.2" height="5.38" x="152.19" y="367.53" class="cls-61"/><rect width="1.2" height="5.38" x="154.67" y="367.53" class="cls-61"/><rect width="1.2" height="5.38" x="156.88" y="367.53" class="cls-61"/><rect width="1.2" height="5.38" x="159.56" y="367.53" class="cls-61"/><rect width="1.2" height="5.38" x="161.77" y="367.53" class="cls-61"/><rect width="1.2" height="5.38" x="164.25" y="367.53" class="cls-61"/><rect width="1.2" height="5.38" x="166.46" y="367.53" class="cls-61"/><rect width="1.2" height="5.38" x="168.72" y="367.53" class="cls-61"/><rect width="1.2" height="5.38" x="171.21" y="367.53" class="cls-61"/><rect width="1.2" height="5.38" x="173.42" y="367.53" class="cls-61"/><path d="M119.16,367a18,18,0,1,1,11.74,22.59A18,18,0,0,1,119.16,367Z" class="cls-64"/><path d="M131.78,386.8A15.17,15.17,0,1,1,150.89,377,15.22,15.22,0,0,1,131.78,386.8ZM140.62,359a14,14,0,1,0,9.12,17.56A14,14,0,0,0,140.62,359Z" class="cls-61"/><path d="M133.62,381a17.74,17.74,0,0,1-3.39-1.49,1.2,1.2,0,0,1,1.21-2.08c1.19.7,4.72,2.33,6.69,1.52a2.22,2.22,0,0,0,1.31-1.68c.38-1.38-.35-2-2.91-3.31-2.16-1.1-5.43-2.77-4-6.66a3.84,3.84,0,0,1,2.24-2.29c3.06-1.19,7.72,1.11,8.25,1.38a1.19,1.19,0,0,1,.52,1.61,1.21,1.21,0,0,1-1.62.53c-1.6-.82-4.72-1.89-6.28-1.28a1.39,1.39,0,0,0-.85.89c-.61,1.63.09,2.29,2.81,3.68,2.15,1.09,5.1,2.59,4.14,6.09a4.65,4.65,0,0,1-2.73,3.27A8.18,8.18,0,0,1,133.62,381Z" class="cls-61"/><path d="M133,384.05a1.2,1.2,0,0,1-.78-1.52l1-2.92a1.16,1.16,0,0,1,1.52-.76,1.2,1.2,0,0,1,.76,1.52l-1,2.92A1.19,1.19,0,0,1,133,384.05Z" class="cls-61"/><path d="M138.59,367.33a1.2,1.2,0,0,1-.77-1.52l1.11-3.32a1.23,1.23,0,0,1,1.52-.76,1.2,1.2,0,0,1,.76,1.52l-1.11,3.32A1.21,1.21,0,0,1,138.59,367.33Z" class="cls-61"/><rect width="2.16" height="1.2" x="140.3" y="356.07" class="cls-61" transform="translate(-241.19 385.56) rotate(-72.7)"/><rect width="2.16" height="1.2" x="144.73" y="358.11" class="cls-61" transform="translate(-231.29 270.78) rotate(-54.75)"/><rect width="2.16" height="1.2" x="148.31" y="361.43" class="cls-61" transform="translate(-186.95 161.38) rotate(-36.76)"/><rect width="2.16" height="1.2" x="150.69" y="365.69" class="cls-61" transform="translate(-109.93 68.44) rotate(-18.8)"/><rect width="2.16" height="1.2" x="151.64" y="370.47" class="cls-61" transform="matrix(1, -0.01, 0.01, 1, -4.83, 2.03)"/><polygon points="151.31 376.57 151.66 375.42 153.72 376.06 153.37 377.21 151.31 376.57" class="cls-61"/><rect width="1.2" height="2.16" x="149.88" y="379.55" class="cls-61" transform="translate(-247.15 283.63) rotate(-54.72)"/><polygon points="147.71 385.99 146.22 384.44 147.08 383.6 148.58 385.16 147.71 385.99" class="cls-61"/><rect width="1.2" height="2.16" x="142.1" y="386.64" class="cls-61" transform="translate(-149.75 95.89) rotate(-24.86)"/><rect width="1.2" height="2.16" x="136.95" y="387.74" class="cls-61" transform="translate(-4.79 1.73) rotate(-0.71)"/><rect width="2.16" height="1.2" x="131.24" y="387.85" class="cls-61" transform="translate(-277.91 399.22) rotate(-72.69)"/><rect width="2.16" height="1.2" x="126.16" y="385.65" class="cls-61" transform="translate(-261.37 266.4) rotate(-54.63)"/><rect width="2.16" height="1.2" x="122.36" y="381.99" class="cls-61" transform="translate(-203.92 149.26) rotate(-36.64)"/><rect width="2.16" height="1.2" x="119.64" y="377.04" class="cls-61" transform="translate(-114.59 58.55) rotate(-18.68)"/><rect width="2.16" height="1.2" x="118.72" y="371.79" class="cls-61" transform="translate(-4.3 1.41) rotate(-0.66)"/><rect width="1.2" height="2.16" x="122.63" y="361.15" class="cls-61" transform="translate(-243.62 253.51) rotate(-54.7)"/><rect width="1.2" height="2.16" x="126.35" y="357.61" class="cls-61" transform="translate(-189.15 146.89) rotate(-36.69)"/><rect width="1.2" height="2.16" x="130.83" y="355.45" class="cls-61" transform="translate(-107.36 60.95) rotate(-18.7)"/><rect width="1.2" height="2.16" x="135.95" y="354.69" class="cls-61" transform="translate(-4.36 1.7) rotate(-0.7)"/><rect width="1.2" height="2.16" x="119.86" y="366.28" class="cls-61" transform="translate(-266.12 371.8) rotate(-72.5)"/><path d="M394.07,167A15.07,15.07,0,1,1,409.14,182,15.07,15.07,0,0,1,394.07,167Z" class="cls-1"/><path d="M409.14,182.46A15.5,15.5,0,1,1,424.63,167,15.51,15.51,0,0,1,409.14,182.46Zm0-30.15A14.66,14.66,0,1,0,423.79,167,14.67,14.67,0,0,0,409.14,152.31Z" class="cls-27"/><path d="M408.81,175.43a18.87,18.87,0,0,1-3.69-.35,1.21,1.21,0,0,1-.92-1.43,1.2,1.2,0,0,1,1.43-.92c1.34.28,5.2.72,6.81-.66a2.21,2.21,0,0,0,.73-2c-.08-1.43-1-1.8-3.81-2.23-2.39-.37-6-.93-5.86-5.07a3.84,3.84,0,0,1,1.41-2.88c2.53-2.08,7.67-1.36,8.25-1.27a1.2,1.2,0,1,1-.36,2.37c-1.78-.27-5.08-.3-6.36.76a1.41,1.41,0,0,0-.54,1.11c-.06,1.74.81,2.14,3.83,2.6,2.38.37,5.64.87,5.83,4.48a4.61,4.61,0,0,1-1.56,4A8.19,8.19,0,0,1,408.81,175.43Z" class="cls-46"/><path d="M409.2,178.48a1.21,1.21,0,0,1-1.22-1.2v-3.07a1.16,1.16,0,0,1,1.2-1.2,1.2,1.2,0,0,1,1.2,1.2v3.07A1.2,1.2,0,0,1,409.2,178.48Z" class="cls-46"/><path d="M409.23,160.88a1.21,1.21,0,0,1-1.21-1.21v-3.49a1.22,1.22,0,0,1,1.2-1.2,1.2,1.2,0,0,1,1.2,1.2v3.5A1.2,1.2,0,0,1,409.23,160.88Z" class="cls-46"/><path d="M119.13,202.6l6.09,2.88s3.56-5.27,4.19-6.61a20.84,20.84,0,0,0,1.1-5.67c.08-1.33,1.27-4.15-.8-3.67a9.39,9.39,0,0,0-4.9,2.67,14.14,14.14,0,0,0-2.86,6.69Z" class="cls-65"/><path d="M83.05,341.32s-5.87,34.13-3.85,38.86A17.42,17.42,0,0,0,85,387.36a76.73,76.73,0,0,1-8.62-3.51A55.1,55.1,0,0,1,72,380.22,48.38,48.38,0,0,0,72.65,367a101.06,101.06,0,0,1-.48-18.55c.46-7.49,1.5-9.41,1.5-9.41Z" class="cls-36"/><path d="M71.62,379.53s9.19,6.67,11.38,6.86l4.1,1.2a9.19,9.19,0,0,1-5.66,1.52,8.08,8.08,0,0,1-4.92-3l-2-.58.61,2.94L71,387.43Z" class="cls-35"/><path d="M105.57,340.88s-1.95,34.58.6,39a17.42,17.42,0,0,0,6.59,6.47,77.52,77.52,0,0,1-9-2.49c-1.11-.5-4.81-3.11-4.81-3.11a47.87,47.87,0,0,0-.82-13.18,101.45,101.45,0,0,1-2.58-18.38c-.4-7.49.41-9.52.41-9.52Z" class="cls-36"/><path d="M98.56,380.14s9.9,5.58,12.09,5.52l4.21.73a9.18,9.18,0,0,1-5.44,2.15,8.07,8.07,0,0,1-5.23-2.39l-2-.35.94,2.85-4.23-.59Z" class="cls-35"/><path d="M84.39,276.32l19.72-.47,7,65.95-42.21-.71L71,277.57Z" class="cls-40"/><path d="M76.25,228.61s-4.57,1-5.64,3.92S69.17,255.66,69,263s-4.52,15.84-1.79,17.29a12,12,0,0,1,3.55,2.49l-.16,3.72s10.7-2.9,16-3.42,18.73-1.51,18.73-1.51l-.17-3.15s.91-.54.83-7.78c.37-5.17,0-23.55,0-23.55s13.81-6,16-9.15,11.46-31.4,11.46-31.4l-7.17-2.35-.72,1.24-6.25-3.58s-8.56,16.26-12.79,17.11-16.22,4.28-18.69,5.09a7.16,7.16,0,0,0-3.24,1.79l2.19,2.28s.73,2.44-3.1,2.69C80.63,231,76.25,228.61,76.25,228.61Z" class="cls-19"/><path d="M76,234.13a.3.3,0,0,1,0-.59c.25,0,25.27-1.49,32.07-5.74s16.48-21.7,16.57-21.88a.3.3,0,0,1,.41-.11.29.29,0,0,1,.11.4c-.4.72-9.85,17.76-16.78,22.09S77.06,234.07,76,234.13Z" class="cls-35"/><path d="M88.37,251.55c-3.72,0-8.28-1.22-10.29-4.25a.29.29,0,0,1,.08-.41.3.3,0,0,1,.41.08c2.4,3.6,8.92,4.49,12.52,3.74s11.66-2.51,11.66-2.51l.12.58-11.66,2.51A14.53,14.53,0,0,1,88.37,251.55Z" class="cls-35"/><path d="M98,231a.3.3,0,0,1-.15,0l-5.5-3.27a.31.31,0,0,1-.1-.41.3.3,0,0,1,.41-.1l5.49,3.28a.29.29,0,0,1,.11.4A.32.32,0,0,1,98,231Z" class="cls-35"/><path d="M72,282.86a.29.29,0,0,1-.11-.56c.28-.12,6.89-2.83,12.06-2.83h.27a117.25,117.25,0,0,0,13.67-1.1.3.3,0,0,1,.34.25A.31.31,0,0,1,98,279a119.11,119.11,0,0,1-13.77,1.1c-5.09-.09-12,2.75-12.1,2.78A.2.2,0,0,1,72,282.86Z" class="cls-35"/><path d="M125.89,204.33l7.2,2.16,2-5.21s4.39-3.42,4.59-5.63-.81-3-.93-3.79.18-3.07-.75-3.18-5.29,4-5.29,4,.69-5.74-.12-6.23-2.73,5.1-2.73,5.1a39.77,39.77,0,0,1-.35,5.93C129.16,198.62,125.89,204.33,125.89,204.33Z" class="cls-36"/><path d="M80.55,219.51s-3-3.37-4.52-1,9.17,9.6,13,6.18c.8-.69,1.54-3.92.47-7.45-.14-.46,1.39-2.49.93-2.58-1.74-.38-3-1.69-3.07-2.55a8.09,8.09,0,0,0-1.57-4.55,6.4,6.4,0,0,0-4,2.9c-1.29,2.36.39,6.4-.42,7.71Z" class="cls-36"/><path d="M78,222.81l-.68,6.57a8.14,8.14,0,0,0,9.3.19c.13-.21-1.63-5.77-1.63-5.77l-5.37-3.64Z" class="cls-36"/><path d="M78.53,225.92l1.11-2.73s-4.55-3.88-3-4.78,3.66,1.31,3.66,1.31,1.81-1,1.81-2.38-.44-5.73,1.38-7.4a6.77,6.77,0,0,1,3-1.86s-1.78-4.27-7.09-3.11-9.11,2.39-10.88,6.24-1.49,7.33.24,9.71C71.82,225.13,78.53,225.92,78.53,225.92Z" class="cls-40"/><path d="M77.74,225.65l-.13,0c-.07,0-6.82-.85-9.88-5.07-1.87-2.58-2-6.18-.25-9.88,1.86-4,5.9-5.21,11-6.33,5.38-1.18,7.25,3.16,7.27,3.21l.08.19-.2,0a6.79,6.79,0,0,0-2.93,1.81c-1.5,1.39-1.39,4.73-1.33,6.53,0,.3,0,.56,0,.75a.69.69,0,0,1-.2.51c-.42.41-1.37.39-2.48.37a6.34,6.34,0,0,0-2.87.34.44.44,0,0,0-.24.36c-.09,1,2.32,3.35,3.26,4.15l.09.08Zm2.55-21.17a8,8,0,0,0-1.74.2c-5,1.1-9,2.25-10.77,6.14-1.65,3.58-1.57,7.06.23,9.54,2.74,3.79,8.58,4.78,9.51,4.92l1-2.5c-.63-.54-3.4-3-3.28-4.35a.76.76,0,0,1,.4-.62,6.54,6.54,0,0,1,3-.39c1,0,1.92,0,2.23-.27a.37.37,0,0,0,.11-.27c0-.19,0-.44,0-.74-.06-1.85-.17-5.29,1.45-6.78a7.82,7.82,0,0,1,2.88-1.85A5.56,5.56,0,0,0,80.29,204.48Z" class="cls-40"/><path d="M60.43,213.49a4.44,4.44,0,1,1,5.82,2A4.36,4.36,0,0,1,60.43,213.49Z" class="cls-40"/><path d="M64.12,215.13a4.44,4.44,0,0,1-4.06-2.54,4.32,4.32,0,0,1-.09-3.42,4.74,4.74,0,0,1,5.91-2.73,4.34,4.34,0,0,1,2.63,5.71,4.75,4.75,0,0,1-4.39,3Zm.25-8.61a4.45,4.45,0,0,0-1.85.41,4.35,4.35,0,0,0-2.24,2.36,4.07,4.07,0,0,0,.08,3.16,4.19,4.19,0,0,0,5.6,1.94A4.35,4.35,0,0,0,68.2,212a4,4,0,0,0-2.43-5.27A4.25,4.25,0,0,0,64.37,206.52Z" class="cls-40"/><path d="M85.35,225.9a7.48,7.48,0,0,1-4.14-1.21.3.3,0,0,1-.07-.41.28.28,0,0,1,.41-.07,7.09,7.09,0,0,0,3.94,1.1.29.29,0,0,1,.31.28.3.3,0,0,1-.29.31Z" class="cls-35"/><path d="M82.78,231.29a13.89,13.89,0,0,1-6.15-2,.29.29,0,0,1-.09-.41.31.31,0,0,1,.41-.1s4.25,2.62,7.18,1.74c1.43-.43,1.94-1,2.12-1.37a.93.93,0,0,0,0-.75.3.3,0,0,1,.15-.39.3.3,0,0,1,.39.14,1.53,1.53,0,0,1,0,1.22,3.65,3.65,0,0,1-2.48,1.71A5.24,5.24,0,0,1,82.78,231.29Z" class="cls-35"/></svg>